<?xml version="1.0" encoding="UTF-8" standalone="no"?>
<!-- Created with Inkscape (http://www.inkscape.org/) -->

<svg
   xmlns:dc="http://purl.org/dc/elements/1.1/"
   xmlns:cc="http://creativecommons.org/ns#"
   xmlns:rdf="http://www.w3.org/1999/02/22-rdf-syntax-ns#"
   xmlns:svg="http://www.w3.org/2000/svg"
   xmlns="http://www.w3.org/2000/svg"
   xmlns:sodipodi="http://sodipodi.sourceforge.net/DTD/sodipodi-0.dtd"
   xmlns:inkscape="http://www.inkscape.org/namespaces/inkscape"
   width="200mm"
   height="235mm"
   viewBox="0 0 708.66142 832.67716"
   id="svg5548"
   version="1.1"
   inkscape:version="0.91 r13725"
   sodipodi:docname="crest.svg">
  <defs
     id="defs5550">
    <clipPath
       clipPathUnits="userSpaceOnUse"
       id="clipPath4880-3-0-6-6">
      <path
         style="display:inline;fill:#ff6600;fill-opacity:1;stroke:none;stroke-width:5.09700012;stroke-linecap:square;stroke-linejoin:bevel;stroke-miterlimit:4;stroke-dasharray:none;stroke-opacity:1"
         d="m -3459.4782,5771.5746 0,1016.1005 1760.4532,0 0,-1016.1005 -1760.4532,0 z m 580.2775,464.7588 82.8693,0 0,112.8841 -82.8693,0 0,-112.8841 z m 287.5975,0.015 82.8693,0 0,112.3052 -82.8693,0 0,-112.3052 z m -287.5975,135.8584 82.8693,0 0,112.8841 -82.8693,0 0,-112.8841 z m 287.5975,0.015 82.8693,0 0,112.3052 -82.8693,0 0,-112.3052 z m 315.0334,1.5057 123.7202,0 0,190.7612 -123.7202,0 0,-190.7612 z"
         id="path4882-7-3-1-7"
         inkscape:connector-curvature="0" />
    </clipPath>
    <clipPath
       clipPathUnits="userSpaceOnUse"
       id="clipPath8197-8-5-8-1">
      <rect
         style="fill:#aa0000;fill-opacity:0;stroke:#000000;stroke-width:9.89799976;stroke-linecap:square;stroke-linejoin:round;stroke-miterlimit:4;stroke-dasharray:none;stroke-opacity:1"
         id="rect8199-3-6-8-6"
         width="480.83261"
         height="141.42136"
         x="285.67114"
         y="-1380.0851" />
    </clipPath>
    <clipPath
       clipPathUnits="userSpaceOnUse"
       id="clipPath4880-3-0-6">
      <path
         style="display:inline;fill:#ff6600;fill-opacity:1;stroke:none;stroke-width:5.09700012;stroke-linecap:square;stroke-linejoin:bevel;stroke-miterlimit:4;stroke-dasharray:none;stroke-opacity:1"
         d="m -3459.4782,5771.5746 0,1016.1005 1760.4532,0 0,-1016.1005 -1760.4532,0 z m 580.2775,464.7588 82.8693,0 0,112.8841 -82.8693,0 0,-112.8841 z m 287.5975,0.015 82.8693,0 0,112.3052 -82.8693,0 0,-112.3052 z m -287.5975,135.8584 82.8693,0 0,112.8841 -82.8693,0 0,-112.8841 z m 287.5975,0.015 82.8693,0 0,112.3052 -82.8693,0 0,-112.3052 z m 315.0334,1.5057 123.7202,0 0,190.7612 -123.7202,0 0,-190.7612 z"
         id="path4882-7-3-1"
         inkscape:connector-curvature="0" />
    </clipPath>
    <clipPath
       clipPathUnits="userSpaceOnUse"
       id="clipPath8197-8-5-8">
      <rect
         style="fill:#aa0000;fill-opacity:0;stroke:#000000;stroke-width:9.89799976;stroke-linecap:square;stroke-linejoin:round;stroke-miterlimit:4;stroke-dasharray:none;stroke-opacity:1"
         id="rect8199-3-6-8"
         width="480.83261"
         height="141.42136"
         x="285.67114"
         y="-1380.0851" />
    </clipPath>
  </defs>
  <sodipodi:namedview
     id="base"
     pagecolor="#ffffff"
     bordercolor="#666666"
     borderopacity="1.0"
     inkscape:pageopacity="0.0"
     inkscape:pageshadow="2"
     inkscape:zoom="0.35"
     inkscape:cx="794.14667"
     inkscape:cy="488.19127"
     inkscape:document-units="px"
     inkscape:current-layer="layer1"
     showgrid="false"
     inkscape:window-width="1366"
     inkscape:window-height="716"
     inkscape:window-x="-8"
     inkscape:window-y="-8"
     inkscape:window-maximized="1" />
  <metadata
     id="metadata5553">
    <rdf:RDF>
      <cc:Work
         rdf:about="">
        <dc:format>image/svg+xml</dc:format>
        <dc:type
           rdf:resource="http://purl.org/dc/dcmitype/StillImage" />
        <dc:title></dc:title>
      </cc:Work>
    </rdf:RDF>
  </metadata>
  <g
     inkscape:label="Layer 1"
     inkscape:groupmode="layer"
     id="layer1"
     transform="translate(0,-219.68504)">
    <g
       transform="matrix(1.583159,0,0,1.583159,-756.32936,3377.0737)"
       id="g5232"
       inkscape:export-filename="C:\Users\user\Pictures\qubmc website\crest.png"
       inkscape:export-xdpi="779.84442"
       inkscape:export-ydpi="779.84442">
      <path
         inkscape:export-ydpi="176.38472"
         inkscape:export-xdpi="176.38472"
         inkscape:connector-curvature="0"
         id="path3479-1-4-9-7-5"
         d="m 701.44425,-1985.9341 c -157.9597,0 -215.3389,56.2539 -215.3389,56.2539 -3.4092,21.5916 -5.116,44.3242 -5.116,67.0522 0,167.6191 89.2006,314.2125 220.4549,386.9421 131.2542,-73.2978 220.4663,-219.3321 220.4663,-387.5194 0,-22.728 -1.7069,-44.881 -5.1161,-67.0408 0,0 -57.3905,-55.688 -215.3502,-55.688 z"
         style="fill:#000000" />
      <path
         inkscape:export-ydpi="176.38472"
         inkscape:export-xdpi="176.38472"
         inkscape:connector-curvature="0"
         id="path3479-1-4-8-6-0"
         d="m 701.81405,-1972.0078 c -148.8543,0 -202.9259,53.0459 -202.9259,53.0459 -3.2127,20.3603 -4.8212,41.7965 -4.8212,63.2284 0,158.0602 84.0588,296.2938 207.7471,364.8759 123.6884,-69.1179 207.7579,-206.8242 207.7579,-365.4203 0,-21.4319 -1.6085,-42.3216 -4.8212,-63.2176 0,0 -54.0823,-52.5123 -202.9367,-52.5123 z"
         style="fill:#d40000" />
      <path
         inkscape:export-ydpi="176.38472"
         inkscape:export-xdpi="176.38472"
         inkscape:connector-curvature="0"
         id="path3479-1-9-6-9-7"
         d="m 702.06055,-1970.7913 c -72.6969,0 -122.6385,12.6501 -154.846,25.5882 l 153.2464,153.2257 154.2921,-154.2919 c -32.2712,-12.5163 -81.5514,-24.522 -152.6925,-24.522 z m 168.6643,31.2535 -158.9225,158.912 140.8078,140.7976 c 36.231,-62.6797 57.1034,-136.4308 57.1034,-215.3669 0,-21.4071 -1.6077,-42.2728 -4.8187,-63.1447 0,0 -10.2824,-9.9601 -34.17,-21.198 z m -339.252,1.2961 c -22.4159,10.9392 -32.2364,20.435 -32.2364,20.435 -3.211,20.3368 -4.8187,41.748 -4.8187,63.1551 0,77.7433 20.4058,150.6618 55.8489,212.8583 l 138.8325,-138.8325 -157.6263,-157.6159 z m 168.9881,168.9675 -141.7379,141.7174 c 35.9847,57.6887 85.2906,105.1941 143.3375,137.3586 57.3244,-32.0125 106.1117,-78.7749 141.9788,-135.498 l -143.5784,-143.578 z"
         style="display:inline;fill:#5f8dd3;fill-opacity:1;stroke:#000000;stroke-width:5;stroke-miterlimit:4;stroke-dasharray:none;stroke-opacity:1" />
      <path
         inkscape:export-ydpi="176.38472"
         inkscape:export-xdpi="176.38472"
         inkscape:connector-curvature="0"
         id="path3479-1-9-3-2-5-1"
         d="m 530.84835,-1937.6852 c -22.4713,10.9662 -32.3156,20.4869 -32.3156,20.4869 -3.219,20.387 -4.8299,41.8513 -4.8299,63.3113 0,77.9354 20.4549,151.0329 55.9857,213.3831 l 139.177,-139.1727 -158.0172,-158.0086 z m 105.6263,81.0522 c -0.028,-0.025 0.4887,0.6566 0.5517,0.7512 2.4141,3.0466 5.5249,7.1028 4.3122,4.9233 -0.4043,-0.7266 -0.8728,-1.4116 -1.3285,-2.1052 -1.1262,-1.2431 -2.2797,-2.4582 -3.5354,-3.5693 z m 8.3824,9.4476 c -0.2752,-0.1061 0.9087,0.7468 0.713,0.5263 -0.1097,-0.1237 -0.2136,-0.2535 -0.3226,-0.3778 -0.1299,-0.05 -0.2606,-0.099 -0.3904,-0.1486 z m -69.4272,203.8294 c -0.2622,0.2859 -0.6434,0.7268 -1.1332,1.2987 0.1997,-0.07 0.3912,-0.1223 0.5857,-0.1867 0.2023,-0.3136 0.4153,-0.6205 0.6111,-0.9379 -0.032,-0.015 -0.045,-0.1059 -0.064,-0.1741 z m -3.128,4.8172 c -0.5055,0.347 -1.0083,0.6976 -1.511,1.0483 -0.5783,0.7867 -1.0257,1.4125 -1.5491,2.1306 0.2187,-0.058 0.4452,-0.1217 0.6621,-0.1782 0.8222,-0.9814 1.6266,-1.9776 2.398,-3.0007 z"
         style="display:inline;fill:#ffdd55;fill-opacity:1;stroke:#000000;stroke-width:5;stroke-miterlimit:4;stroke-dasharray:none;stroke-opacity:1" />
      <path
         inkscape:export-ydpi="176.38472"
         inkscape:export-xdpi="176.38472"
         inkscape:connector-curvature="0"
         id="path3479-1-9-2-2-8-6"
         d="m 854.39875,-1946.3842 c 0.059,0.2035 0.1192,0.4056 0.1787,0.6086 l 0.3958,-0.3958 c -0.1852,-0.072 -0.3883,-0.141 -0.5746,-0.2129 z m 16.6344,6.9806 -158.9212,158.9085 c -0.086,0.4868 -0.1842,0.9574 -0.2767,1.4344 l 140.9843,140.9758 c 36.4256,-63.0164 57.4119,-137.1645 57.4119,-216.5246 0,-21.5221 -1.6157,-42.4977 -4.844,-63.4817 0,0 -10.3383,-10.0141 -34.3543,-21.3124 z"
         style="display:inline;fill:#ffdd55;fill-opacity:1;stroke:#000000;stroke-width:5;stroke-miterlimit:4;stroke-dasharray:none;stroke-opacity:1" />
      <g
         inkscape:export-ydpi="176.38472"
         inkscape:export-xdpi="176.38472"
         transform="matrix(-0.95637901,-0.50361805,-0.50361805,0.95637901,2639.1281,-1368.5522)"
         id="g7078-5-2-8"
         style="display:inline">
        <g
           id="g4924-2-81-0-7"
           transform="matrix(-0.63699167,-0.56575988,-0.51877331,0.69468557,2426.9583,633.63213)"
           style="fill:#3771c8;fill-opacity:1">
          <path
             inkscape:connector-curvature="0"
             d="m 862.7566,398.30637 c -1.86524,-0.0937 -3.62811,-0.72454 -5.39771,-1.26063 -1.08776,-0.44766 -2.25685,-0.65741 -3.3412,-1.10776 -0.75374,-0.23744 -1.49676,-0.51009 -2.2564,-0.7394 -0.8324,-0.22157 -1.65355,-0.2975 -2.22436,-0.99439 -0.65253,-0.69618 -1.49641,-1.01761 -2.33593,-1.41716 -0.6799,-0.28777 -1.42627,-0.39283 -2.10518,-0.671 -0.35765,-0.13775 -0.82614,-0.11317 -1.15508,-0.32333 -0.4814,-0.30756 0.44259,0.0843 -0.45886,-0.24845 -0.5378,-0.28755 -1.12946,-0.46861 -1.70499,-0.68259 -0.55537,-0.43851 -1.16221,-0.7885 -1.81841,-1.06761 -0.74037,-0.28484 -1.5381,-0.41046 -2.27352,-0.70011 -0.77957,-0.15169 -1.56349,-0.27973 -2.34969,-0.38463 -0.92211,-0.13189 -1.85034,-0.11988 -2.76913,0.0208 -0.88121,0.20273 -1.75835,0.41675 -2.61288,0.71405 -0.82877,0.34046 -1.67112,0.81692 -2.17733,1.57695 -0.0839,0.10107 -0.18365,0.19088 -0.25177,0.30321 -0.0523,0.0863 -0.059,0.1941 -0.10447,0.28423 -0.17615,0.34928 -0.4344,0.56608 -0.44143,0.98568 -0.10038,5.98424 -0.16513,11.96902 -0.2477,17.95353 0.27751,0.81173 0.71175,1.55709 1.13078,2.30175 0.4204,0.7375 0.84102,1.47486 1.25846,2.21404 0.41142,0.72981 0.81997,1.46123 1.22849,2.19267 0.8209,0.93693 1.97327,1.17841 3.15652,1.29078 1.29529,0.0223 2.60824,0.0452 3.89478,-0.12527 2.08456,-0.22727 4.16466,0.27444 6.19854,0.67357 2.16266,0.43383 4.36282,0.65115 6.52493,1.08665 3.14888,0.63425 -0.0108,0.12408 3.15096,0.59301 2.44704,0.24092 4.88051,-0.17684 7.29691,-0.51189 1.5025,-0.33318 3.00969,-0.35763 4.53587,-0.28714 1.05468,0.0716 2.1026,0.17747 3.1201,0.46906 0.8789,0.29341 1.81495,0.33159 2.71278,0.53312 0.65304,0.11686 1.34931,0.1943 1.92299,0.55082 0.78373,0.37824 1.68075,0.53382 2.54649,0.55179 1.08476,-0.0347 2.11696,0.23187 3.15423,0.50157 0.89678,0.31987 1.79186,0.63808 2.59414,1.15811 0.75245,0.38271 1.41331,0.89801 2.12206,1.34477 0.56836,0.63064 1.34948,0.96659 1.97153,1.53377 0.54655,0.55813 1.19965,1.00251 1.78764,1.5204 0.37631,0.37003 0.58264,0.84375 1.00835,1.16581 0.56284,0.36881 0.29992,0.17809 0.79229,0.56721 0.58616,0.53894 1.27136,0.94661 1.91929,1.40223 0.45023,0.22496 0.86206,0.51424 1.32398,0.71654 0.61086,0.26753 0.23387,-0.008 0.57307,0.26873 -0.0574,0.0408 -0.10361,0.10715 -0.17239,0.12206 -5.71868,1.23295 -0.2655,-11.70438 -0.0418,-17.55019 0.002,-0.0569 0.0678,0.10697 0.0539,0.16223 -0.0316,0.12626 -0.36393,0.37142 -0.41587,0.41504 -1.13202,0.79302 -2.49286,1.11571 -3.82291,1.39759 -1.05498,0.20423 -2.04975,0.19179 -3.07926,-0.0822 -0.16598,-0.0545 -0.33474,-0.10122 -0.49796,-0.16354 -0.4275,-0.1632 -0.82683,-0.39591 -1.25733,-0.55104 -0.98058,-0.35334 -2.02454,-0.59096 -3.02679,-0.87444 -1.95469,-0.38183 -3.83417,-1.03097 -5.71792,-1.66137 -1.5763,-0.79496 -3.30952,-0.91948 -5.04033,-1.04935 -2.30488,-0.10829 -4.59643,-0.404 -6.88259,-0.7049 0,0 -0.43556,17.22111 -0.43556,17.22111 l 0,0 c 2.30226,0.2627 4.60465,0.52229 6.90207,0.82473 0.67883,0.0999 1.37728,0.17748 2.04128,0.36382 0.90204,0.25316 1.75092,0.69632 2.66969,0.90162 1.9002,0.5145 3.82771,0.91608 5.71883,1.46158 1.67073,0.55548 3.25105,1.29096 4.88455,1.93751 1.30441,0.27785 2.57096,0.20855 3.87088,-0.0996 1.49106,-0.33797 2.9965,-0.61914 4.43259,-1.16124 0.077,-0.0362 1.14287,-0.48049 1.14462,-0.50636 1.08298,-16.08904 6.44495,-16.33035 -0.27226,-18.22352 -0.60982,-0.19721 -1.1474,-0.56553 -1.67246,-0.92658 -0.61755,-0.39222 -1.18596,-0.86299 -1.75058,-1.32801 -0.63829,-0.54332 -1.06761,-1.29306 -1.78378,-1.76011 -0.61922,-0.49063 -1.21156,-1.01323 -1.83725,-1.49617 -0.72392,-0.50451 -1.38385,-1.07626 -2.11427,-1.56978 -0.7174,-0.5032 -1.52689,-0.86039 -2.27724,-1.31172 -0.98177,-0.46372 -1.99137,-0.87119 -3.0531,-1.11467 -1.14598,-0.26869 -2.28812,-0.56083 -3.4708,-0.6106 -0.67017,-0.0828 -1.31808,-0.20531 -1.90697,-0.55721 -0.76193,-0.27269 -1.54265,-0.44774 -2.34973,-0.527 -0.87874,-0.13389 -1.7579,-0.27359 -2.6108,-0.53275 -1.14062,-0.24192 -2.30712,-0.23079 -3.4658,-0.3222 -1.65692,-0.0776 -3.30059,0.0381 -4.92143,0.41535 -2.22065,0.47117 -4.49031,0.92649 -6.76826,0.84643 -3.21327,-0.39141 -6.3892,-1.07007 -9.54812,-1.76875 -2.21544,-0.49786 -4.46513,-1.08308 -6.74343,-1.1227 -1.14276,0.0958 -2.2977,0.29913 -3.44096,0.13143 -0.78315,-0.17776 -1.27723,-0.46526 -1.53701,-1.26364 -0.4098,-0.7312 -0.82088,-1.46168 -1.23153,-2.1924 -0.40436,-0.72385 -0.81512,-1.44625 -1.15428,-2.20369 -0.29163,-0.71227 -0.52748,-1.44186 -0.38247,-2.22078 -0.0898,5.74195 -0.17243,11.48402 -0.26937,17.22586 -0.002,0.10911 0.008,-0.22062 -0.0159,-0.32699 -0.0634,-0.27675 -0.20757,-0.26868 -0.14366,-0.56878 0.16379,-0.76904 0.16454,0.16391 0.12741,-0.57628 0.0492,-0.0956 0.0983,-0.19126 0.14751,-0.2869 0.008,-0.0951 -0.01,-0.19616 0.0245,-0.28519 0.15183,-0.39391 0.49621,-0.71943 0.80961,-0.98727 0.74322,-0.31688 1.51214,-0.50683 2.29062,-0.70785 0.72811,-0.1724 1.46571,-0.13005 2.20061,-0.005 0.69038,0.0966 1.37982,0.20263 2.04951,0.40177 0.67164,0.17368 1.35749,0.33555 1.98294,0.64213 0.64471,0.39568 1.26397,0.84236 1.97298,1.1183 0.55286,0.23581 1.12349,0.42473 1.65936,0.69998 0.5591,0.29025 1.18425,0.39144 1.78307,0.5719 0.63547,0.16742 1.27434,0.33852 1.88014,0.5962 0.74664,0.34547 1.30867,0.92265 1.96672,1.40721 0.88603,0.48969 1.84367,0.68974 2.80242,0.98711 0.74974,0.27503 1.48264,0.60357 2.26637,0.77316 1.13961,0.29479 2.29318,0.5274 3.43353,0.81881 1.86033,0.46349 3.69805,1.02588 5.53517,1.57217 0,0 0.56212,-17.7681 0.56212,-17.7681 z"
             id="path4740-8-1-0-1"
             style="fill:#3771c8;fill-opacity:1;stroke:none;stroke-width:0;stroke-linecap:square;stroke-linejoin:round;stroke-miterlimit:4;stroke-dasharray:none;stroke-opacity:1" />
          <path
             inkscape:connector-curvature="0"
             d="m 886.68469,428.58549 c -2.52454,-0.8837 -4.87876,-2.14536 -7.2588,-3.34755 -5.33055,-2.6925 -0.72702,-0.28703 -6.03822,-3.10038 -3.60092,-1.93897 -7.15689,-4.0627 -11.14382,-5.12371 -0.67087,-0.17854 -1.35706,-0.29355 -2.03559,-0.44032 -3.8781,-0.64499 -7.62347,-1.74697 -11.22794,-3.30391 -1.28159,-0.49148 -2.4471,-1.24617 -3.70597,-1.78415 -1.08045,-0.46174 -2.23661,-0.79837 -3.35689,-1.14792 -2.21747,-0.64585 -4.47525,-1.13224 -6.71062,-1.70895 -1.26676,-0.34627 -2.61549,-0.6079 -3.68214,-1.4158 -0.0895,-0.0948 -0.16868,-0.20052 -0.26846,-0.28443 -0.56761,-0.47733 -0.17873,-0.0298 -0.64433,-0.48812 -0.30458,-0.29982 -0.34977,-0.47193 -0.72699,-0.7307 -0.46155,-0.50795 -1.2314,-0.49806 -1.72222,-0.94496 -0.59568,-0.17684 -1.1296,-0.58077 -1.68121,-0.80428 -0.56189,-0.30611 -1.19318,-0.54035 -1.82129,-0.68111 -0.65852,-0.29103 -1.34948,-0.37957 -2.06601,-0.33664 -0.14931,0.0258 -0.29862,0.0516 -0.44793,0.0775 0,0 0.15088,17.80726 0.15088,17.80726 l 0,0 c 0.0693,-0.022 0.13862,-0.044 0.20794,-0.066 0.49427,-0.0677 0.96023,0.23228 1.43525,0.33345 0.50811,0.19811 1.01737,0.38217 1.48846,0.66188 0.48563,0.31935 1.06672,0.45615 1.54348,0.79395 0.53093,0.24154 1.02635,0.46394 1.4244,0.90462 0.52571,0.62397 1.30442,1.00159 1.98431,1.42905 1.34011,0.59591 2.76584,0.90812 4.20538,1.1677 2.21823,0.44506 4.43637,0.91284 6.58114,1.64604 2.37317,0.73342 4.66014,1.68178 6.96033,2.61712 3.74987,1.28909 7.56641,2.36215 11.46412,3.10315 4.42015,1.16706 8.76493,2.59062 12.802,4.78165 4.55186,2.41287 9.03899,4.9858 13.16779,8.08151 0,0 1.12295,-17.69595 1.12295,-17.69595 z"
             id="path4742-0-5-9-5"
             style="fill:#3771c8;fill-opacity:1;stroke:none;stroke-width:0;stroke-linecap:square;stroke-linejoin:round;stroke-miterlimit:4;stroke-dasharray:none;stroke-opacity:1" />
          <path
             inkscape:connector-curvature="0"
             d="m 821.46899,427.87671 c 1.70661,0.2655 3.38405,0.67859 5.09484,0.91912 1.04295,0.24529 2.10629,0.37292 3.15909,0.56498 0.62911,-0.0118 1.16186,0.2884 1.74008,0.47047 0.60989,0.19204 0.67012,0.16716 1.33516,0.25131 1.72513,0.0897 3.34091,0.71977 4.96062,1.26039 2.0879,0.82997 4.14909,1.71911 6.16866,2.70401 1.23916,0.65751 2.49361,1.23917 3.81916,1.70007 1.25631,0.43386 2.44768,1.04138 3.64859,1.60838 1.43058,0.53728 2.80088,1.20164 3.84543,2.33675 0.75525,0.83168 1.67637,1.47984 2.4906,2.24341 1.00633,0.83084 2.19272,1.3888 3.28365,2.0905 1.11075,0.60474 2.17334,1.29371 3.30328,1.8615 0.86539,0.56979 1.86277,0.90467 2.68111,1.54403 0.77654,0.51544 1.58844,0.96559 2.37741,1.45658 0.52956,0.52041 1.25087,0.75884 1.78884,1.26244 0.68039,0.47843 1.46968,0.67347 2.23366,0.9648 0.88009,0.30396 1.77913,0.55923 2.68975,0.74909 0.93568,0.18382 1.88663,0.28293 2.83695,0.3539 0.65969,0.19082 1.27933,0.35723 1.97575,0.37084 0,0 0.2514,-17.79771 0.2514,-17.79771 l 0,0 c -0.63301,0.006 -1.2228,-0.30129 -1.86051,-0.29738 -0.8738,-0.0685 -1.7448,-0.19253 -2.60104,-0.38026 -0.83802,-0.18113 -1.65471,-0.4199 -2.44595,-0.75406 -0.62997,-0.21479 -1.19712,-0.55234 -1.72817,-0.95231 -0.67282,-0.40395 -1.30853,-0.8586 -1.98401,-1.25684 -0.78226,-0.41384 -1.51122,-0.92196 -2.27268,-1.37222 -0.93733,-0.54016 -1.90902,-1.01519 -2.8619,-1.52709 -1.07408,-0.58512 -2.13913,-1.18669 -3.18822,-1.81575 -1.05955,-0.61406 -2.08825,-1.28135 -2.97656,-2.13244 -0.85429,-0.70511 -1.6582,-1.46617 -2.50566,-2.17939 -1.32869,-0.95743 -2.83679,-1.57582 -4.30319,-2.29046 -1.24242,-0.63415 -2.47219,-1.28493 -3.81146,-1.7002 -1.24231,-0.50894 -2.48575,-1.01292 -3.72545,-1.52921 -2.10506,-0.85288 -4.19652,-1.73408 -6.30013,-2.58966 -1.70663,-0.66657 -3.4396,-1.39231 -5.27713,-1.57633 -1.02455,-0.21952 -1.96825,-0.75556 -3.0394,-0.77877 -1.08591,-0.1955 -2.18319,-0.32204 -3.27993,-0.43711 -1.63975,-0.13509 -3.28505,-0.42424 -4.80023,-1.08879 0,0 -0.72241,17.74341 -0.72241,17.74341 z"
             id="path4744-0-7-3-8"
             style="fill:#3771c8;fill-opacity:1;stroke:none;stroke-width:0;stroke-linecap:square;stroke-linejoin:round;stroke-miterlimit:4;stroke-dasharray:none;stroke-opacity:1" />
          <path
             inkscape:connector-curvature="0"
             d="m 864.6924,444.82126 c -1.04201,0.88556 -2.01104,1.84053 -3.09943,2.67227 -0.33453,0.47756 -0.87867,0.7675 -1.26357,1.18967 -0.30231,0.33158 -0.5031,0.6986 -0.83656,1.0114 -0.6812,0.43159 -0.88471,1.24056 -1.44411,1.78284 -0.38342,0.14342 -0.44058,0.59644 -0.77076,0.80489 -0.0966,0.061 -0.4271,0.1566 -0.32791,0.0999 15.20169,-8.68963 15.58253,-14.31634 15.08699,-8.26264 -0.13873,0.77855 -1.03853,-0.93392 -1.13544,-1.09518 -0.54589,-1.09757 -1.01071,-1.83742 -2.03222,-2.55546 -5.75123,-3.03615 -0.81491,-0.59904 -16.12234,8.56493 -0.21218,0.12715 0.0778,1.34376 0.17182,1.52288 0.14136,0.26918 0.33213,0.50939 0.4982,0.76407 4.59602,4.98898 0.64719,1.0979 15.93513,-8.66223 0.0729,-0.0467 -0.35973,-1.74518 -0.41882,-1.93952 0.013,-0.39514 -0.93016,-1.80271 -0.87629,-2.05283 0.0143,-0.0662 0.11591,0.0702 0.17387,0.10536 -5.11026,2.98936 -10.22239,5.97553 -15.3308,8.96805 -0.0312,0.0174 0.0661,-0.061 0.0976,-0.0444 0.0868,0.0459 0.14538,0.13267 0.20954,0.20697 0.25853,0.29935 0.38193,0.61136 0.5299,0.97304 0.31568,0.85403 0.68641,1.68472 1.08882,2.50088 0.28884,0.74059 0.87431,1.37365 1.08114,2.1422 0.1215,0.47199 0.32616,1.2176 0.22403,1.6933 0.0158,0.18326 -0.0479,0.6369 -0.0941,0.81287 -0.0184,0.0702 -0.0944,0.11552 -0.11425,0.18529 -0.06,0.21067 -0.0485,0.43554 -0.0814,0.65212 0.006,0.28015 0.054,0.45247 -0.0762,0.70142 -0.04,0.0765 -0.12967,0.12046 -0.16591,0.19879 -0.17504,0.37837 -0.0828,0.83256 -0.0303,1.22243 0.053,0.93146 0.0974,1.85734 0.13902,2.79279 -0.0685,0.82032 -0.28525,1.60422 -0.28194,2.43209 -0.0289,0.10188 -0.0703,0.20106 -0.0867,0.30569 -0.0582,0.3729 -0.0152,0.76581 -0.12704,1.13312 -0.343,1.12623 0.0438,-0.64911 -0.22942,0.72962 -0.29964,0.68579 -0.73469,1.29176 -0.90867,2.02177 -0.2882,0.6103 -0.41567,1.29875 -0.78634,1.88318 -0.51428,0.7911 -0.78951,1.71823 -1.2797,2.52621 -0.61318,0.60092 -1.09101,1.26308 -1.41313,2.06424 -0.053,0.15333 -0.0926,0.312 -0.15913,0.45998 -0.0597,0.13288 -0.14531,0.25254 -0.21795,0.3788 -0.0668,0.14442 -0.13784,0.28693 -0.20043,0.43321 -0.20415,0.47712 -0.34949,0.94641 -0.59947,1.40301 -0.0291,0.49028 -0.37329,0.76823 -0.59452,1.14897 -0.0697,0.11997 -0.0869,0.26478 -0.15039,0.38813 -0.051,0.0989 -0.12709,0.18266 -0.19064,0.27399 -0.0534,0.11371 -0.10676,0.22744 -0.16015,0.34115 -0.52791,0.65313 -0.75592,1.47856 -1.17167,2.19544 -0.22381,0.2884 -0.50703,0.57807 -0.69558,0.88984 -0.2735,0.45225 -0.18799,0.53336 -0.61001,0.93582 -0.50173,0.59896 -0.73669,1.35088 -1.20782,1.97188 -0.0929,0.37709 -0.25306,0.6878 -0.55297,0.93753 -0.0834,0.0694 -0.1905,0.10968 -0.26644,0.18682 -0.29618,0.4212 -0.13238,0.22588 -0.49011,0.58702 -0.73895,0.5278 -1.52485,0.98199 -2.31731,1.42313 -0.5785,0.67983 -1.32189,1.16763 -2.07928,1.62278 -5.28505,3.04123 -1.6828,0.96645 14.59457,-8.16724 0.13884,-0.0775 -0.28172,0.14751 -0.42305,0.22036 -0.52892,0.27274 -0.93634,0.41943 -1.53014,0.49405 -0.86461,0.13803 -1.73485,0.053 -2.59887,0.0795 -0.80953,-0.12537 -0.82975,-0.0279 -1.52828,-0.5225 -0.57844,-0.4408 -0.97429,-1.05371 -1.35622,-1.66096 -0.45989,-0.63287 -0.95725,-1.25566 -1.52976,-1.79132 -0.52647,-0.518 -1.23039,-0.7663 -1.81873,-1.19904 -0.62514,-0.35776 -1.19342,-0.80174 -1.74122,-1.26674 -0.67894,-0.53124 -1.33582,-1.07835 -1.95857,-1.67406 -0.61809,-0.57782 -1.19474,-1.19873 -1.78047,-1.80934 -0.59986,-0.72068 -1.42862,-1.14064 -2.20165,-1.63544 -0.88461,-0.57855 -1.68131,-1.27354 -2.5537,-1.87012 -0.75455,-0.42851 -1.50268,-0.86171 -2.19535,-1.38673 -0.58995,-0.53803 -1.04351,-1.19077 -1.62851,-1.7364 -0.61701,-0.52014 -1.27761,-0.9808 -1.96957,-1.39366 -0.56835,-0.35862 -0.927,-0.92913 -1.27743,-1.48527 -0.39409,-0.73033 -0.64095,-1.5326 -0.97776,-2.29492 -0.36723,-0.94278 -0.6222,-1.93773 -0.77301,-2.93824 -0.0291,-0.15937 -0.0743,-0.31658 -0.0872,-0.47806 -0.009,-0.11793 0.014,-0.23622 0.021,-0.35432 -0.005,-0.13273 -0.002,-0.26587 -0.0142,-0.39816 -0.0348,-0.3931 -0.16473,-0.74391 -0.1469,-1.13837 -0.018,-0.51791 -0.22632,-1.38649 -0.12751,-1.87332 -0.0599,-0.5952 0.29075,-1.07761 0.35261,-1.66382 0.0417,-0.0904 0.0833,-0.18088 0.12499,-0.2713 0.0645,-0.0665 0.14881,-0.11856 0.19326,-0.19987 0.24217,-0.44318 0.30247,-1.11566 0.34619,-1.60462 0.0502,-1.12628 0.0286,-2.29267 0.32931,-3.38613 0.0544,-0.35528 0.13288,-0.79803 0.23202,-1.14313 0.0255,-0.0889 0.10272,-0.15721 0.12858,-0.24606 0.0662,-0.22736 0.0649,-0.46915 0.10173,-0.70307 0.31838,-0.64157 0.71411,-1.23552 0.88219,-1.93559 0.24719,-0.39178 0.28189,-0.85588 0.40748,-1.28711 0.24107,-0.82777 0.0407,0.53355 0.16827,-0.59634 0.0459,-0.75631 0.44025,-1.40321 0.57522,-2.13491 0.16894,-0.29008 0.2327,-0.60029 0.46872,-0.85023 0.0752,-0.0796 0.18486,-0.126 0.2482,-0.21536 0.20697,-0.46447 0.081,-0.258 0.36495,-0.62717 0.0568,-0.11567 0.10154,-0.23811 0.17046,-0.347 0.30161,-0.47652 0.13372,-0.0924 0.49174,-0.51365 0.28488,-0.33519 0.43291,-0.76711 0.69143,-1.12493 0.5529,-0.86701 1.26518,-1.59575 1.92874,-2.37337 0.69315,-0.95281 1.5107,-1.79457 2.27629,-2.68547 0.79346,-0.82275 1.56221,-1.63224 2.50918,-2.28576 0.59549,-0.72831 1.29445,-1.37489 2.02799,-1.9682 0.13679,-0.0994 0.28539,-0.18432 0.41038,-0.2982 1.20041,-1.09378 -0.46963,0.26616 0.70556,-0.73806 0.4098,-0.35017 0.81519,-0.59035 1.18544,-0.99017 0.6466,-0.74591 1.59886,-1.10047 2.28376,-1.78473 0.53338,-0.50854 1.17149,-0.88411 1.79091,-1.27549 0,0 -16.52034,6.24117 -16.52034,6.24117 l 0,0 c -0.61235,0.45392 -1.19917,0.93688 -1.7942,1.41274 -0.83658,0.51841 -1.51357,1.22287 -2.23807,1.88245 -0.82155,0.60774 -1.50499,1.37638 -2.30195,2.01405 -0.6725,0.65561 -1.3352,1.33137 -2.06624,1.91505 -0.82362,0.80972 -1.58232,1.68406 -2.36787,2.52912 -0.79188,0.87728 -1.47031,1.85203 -2.28394,2.71205 -0.70013,0.80924 -1.28014,1.71517 -1.89688,2.58808 -0.43876,0.70242 -1.01731,1.30482 -1.38092,2.05861 -0.0565,0.11038 -0.11292,0.22075 -0.16938,0.33112 -0.0646,0.0874 -0.14334,0.16599 -0.1939,0.26223 -0.25413,0.48376 -0.3544,1.05769 -0.50179,1.57747 -0.2736,0.7033 -0.36764,1.45562 -0.59351,2.17461 -0.26448,0.53972 -0.36432,1.15229 -0.62938,1.69629 -0.38778,0.66984 -0.64621,1.4352 -0.76645,2.19948 -0.16765,0.70296 -0.31716,1.40133 -0.36696,2.12676 -0.0652,1.1108 -0.095,2.24379 -0.39809,3.32001 -0.26502,0.68935 -0.63113,1.33403 -0.70249,2.07981 -0.24175,0.657 -0.22512,1.34605 -0.19611,2.03634 0.0897,0.66185 0.11108,1.33003 0.21223,1.99159 0.15645,0.82402 0.17514,1.6648 0.38119,2.48092 0.25389,1.10657 0.54661,2.20514 0.94159,3.27073 0.34746,0.85461 0.57628,1.76629 1.06767,2.55513 0.46456,0.76114 0.95157,1.52062 1.62757,2.11466 0.60625,0.47455 1.32675,0.74399 1.89682,1.27393 0.67434,0.45251 1.08624,1.1384 1.65299,1.7078 0.69906,0.62881 1.48198,1.19468 2.33707,1.58948 0.92009,0.51165 1.77716,1.11356 2.55515,1.8263 0.28074,0.18671 0.5348,0.41204 0.8183,0.59456 0.36814,0.23701 0.80043,0.3858 1.12608,0.69744 0.60122,0.65695 1.23434,1.28308 1.85352,1.92235 0.66888,0.585 1.27028,1.24531 1.99724,1.76426 0.62156,0.49185 1.17241,1.07311 1.84465,1.50167 0.56903,0.25229 0.99567,0.81985 1.6364,0.92781 0.13593,0.11489 0.29927,0.19711 0.42555,0.32252 0.31491,0.31281 0.53867,0.72481 0.89139,1.00588 0.47635,0.77143 0.97645,1.53572 1.62901,2.1726 0.57411,0.52708 1.18275,1.22353 2.00154,1.27603 0.93853,0.32129 1.99546,0.30129 2.97491,0.21658 0.83919,-0.0159 0.41483,-0.0347 1.27286,0.0611 0.23099,0.003 0.76319,-0.0759 0.98209,-0.19589 15.21381,-8.34336 10.87967,-5.22457 16.06306,-8.97952 0.68407,-0.5289 1.30528,-1.16436 2.0895,-1.54267 0.79866,-0.55085 1.58541,-1.14307 2.14955,-1.94576 0.15782,-0.21269 0.35023,-0.3991 0.49957,-0.61783 0.2861,-0.41892 0.3545,-0.96088 0.71339,-1.33314 0.35424,-0.67503 0.81445,-1.26471 1.26518,-1.8755 0.36246,-0.71334 0.87029,-1.32889 1.17642,-2.07168 0.33443,-0.76355 0.83664,-1.43414 1.19632,-2.18427 0.40246,-0.70255 0.67554,-1.45017 0.99528,-2.19203 0.35244,-0.8922 0.80217,-1.74902 1.27125,-2.58259 0.50579,-0.66773 1.05389,-1.30778 1.35853,-2.09939 0.38732,-0.89187 0.8761,-1.73284 1.29217,-2.6097 0.23431,-0.68455 0.51984,-1.34467 0.7576,-2.02229 0.39376,-0.67623 0.6354,-1.45152 0.78492,-2.21768 0.21152,-0.78985 0.2577,-1.62386 0.3258,-2.43562 0.12793,-0.84436 0.19397,-1.69325 0.13759,-2.54775 -0.0167,-0.93049 -0.0631,-1.85815 -0.0121,-2.78833 0.0743,-0.23882 0.2142,-0.47038 0.26304,-0.71538 0.0749,-0.37596 0.008,-0.76858 0.13813,-1.13444 0.12871,-0.66251 0.22673,-1.31262 0.13804,-1.99168 -0.1244,-0.74967 -0.21024,-1.5046 -0.52878,-2.2065 -0.35558,-0.77416 -0.80436,-1.49969 -1.18338,-2.26268 -0.38853,-0.78134 -0.74129,-1.57854 -1.05252,-2.39409 -3.20635,-7.50179 -7.30071,-0.19169 -17.06125,6.4739 0.34987,0.67647 0.76682,1.32773 0.93502,2.08279 0.036,0.21937 0.0825,0.38691 0.0494,0.60944 -0.0567,0.38068 -0.26782,0.33072 -0.23895,0.31387 15.42054,-9.00355 12.57747,-14.11414 15.54656,-8.1787 0.0969,0.21754 0.18904,0.43725 0.29068,0.65264 0.0236,0.05 0.0367,0.11504 0.0846,0.1426 0.009,0.005 0.51507,-0.0545 0.41481,0.002 -15.35801,8.66398 -15.89545,14.17616 -15.17352,8.02334 0.0469,-0.0851 0.0645,-0.19497 0.14064,-0.25527 0.3888,-0.30779 0.98174,1.20311 1.15878,1.42342 0.57041,0.96857 1.10939,1.99361 1.98407,2.72646 5.8068,3.56149 13.15069,-4.68945 17.05054,-9.72316 0.40556,-0.64543 0.97579,-1.09285 1.47869,-1.65707 0.58832,-0.73154 1.3384,-1.31483 2.04567,-1.92875 1.065,-0.96143 2.13844,-1.91268 3.19026,-2.88787 0,0 -16.52373,6.59664 -16.52373,6.59664 z"
             id="path4746-6-0-1-7"
             style="fill:#3771c8;fill-opacity:1;stroke:none;stroke-width:0;stroke-linecap:square;stroke-linejoin:round;stroke-miterlimit:4;stroke-dasharray:none;stroke-opacity:1" />
          <path
             inkscape:connector-curvature="0"
             d="m 825.68941,429.01208 c -0.47804,0.39857 -1.05363,0.672 -1.5411,1.055 -0.46779,0.36754 -0.88541,0.81716 -1.34567,1.19816 -0.1547,0.42678 -0.59625,0.67087 -0.83733,1.02336 -0.27442,0.40123 -0.1822,0.50135 -0.59183,0.87414 -0.77846,0.66099 -1.43181,1.44234 -2.24031,2.08725 -0.38836,0.59676 -1.03022,0.9365 -1.53013,1.41041 -0.2292,0.21727 -0.41484,0.47705 -0.63899,0.69952 -0.52521,0.85906 -1.37033,1.48162 -1.89919,2.3307 -0.38693,0.8057 -0.79925,1.62182 -1.34299,2.33523 -0.0762,0.13643 -0.15251,0.27286 -0.22877,0.4093 0,0 16.31579,-6.96068 16.31579,-6.96068 l 0,0 c 0.0838,-0.12498 0.16756,-0.24997 0.25135,-0.37496 0.41211,-0.75372 0.83428,-1.53365 1.40618,-2.17499 0.70035,-0.6696 1.23062,-1.50777 1.98117,-2.12784 0.69641,-0.68192 1.43227,-1.32853 2.13257,-2.00899 0.77135,-0.78078 1.58555,-1.54782 2.26367,-2.40282 0.36746,-0.60589 0.8836,-1.12265 1.45725,-1.53952 0.94608,-0.81129 2.01594,-1.4499 3.00594,-2.20603 0,0 -16.61761,6.37276 -16.61761,6.37276 z"
             id="path4748-2-7-2-5"
             style="fill:#3771c8;fill-opacity:1;stroke:none;stroke-width:0;stroke-linecap:square;stroke-linejoin:round;stroke-miterlimit:4;stroke-dasharray:none;stroke-opacity:1" />
          <path
             inkscape:connector-curvature="0"
             d="m 829.58172,436.19307 c 0.69281,-1.08183 1.4689,-2.11246 2.1603,-3.19634 0.58205,-0.65579 0.8466,-1.51559 1.28608,-2.26141 0.27141,-0.46058 0.5937,-0.88936 0.87887,-1.34154 0.53356,-0.81927 1.18839,-1.56388 1.69037,-2.4036 0.55748,-0.93255 0.0253,-0.21057 0.66446,-1.01277 0.64999,-0.87231 1.22359,-1.80556 1.90502,-2.65331 0.54598,-0.88409 1.2266,-1.69024 1.94173,-2.44336 0.13689,-0.12395 0.27377,-0.2479 0.41066,-0.37185 0,0 -16.405,6.59196 -16.405,6.59196 l 0,0 c -0.12275,0.14869 -0.24551,0.29738 -0.36827,0.44607 -0.6714,0.8495 -1.32603,1.70709 -1.9311,2.60499 -0.58915,0.90478 -1.24872,1.76208 -1.82928,2.67346 -0.68751,1.16797 -1.50745,2.25247 -2.20398,3.41584 -0.7714,1.20461 -1.45964,2.46054 -2.29513,3.62273 -0.77198,1.12227 -1.51868,2.26725 -2.21802,3.43505 0,0 16.31329,-7.10592 16.31329,-7.10592 z"
             id="path4750-3-7-1-5"
             style="fill:#3771c8;fill-opacity:1;stroke:none;stroke-width:0;stroke-linecap:square;stroke-linejoin:round;stroke-miterlimit:4;stroke-dasharray:none;stroke-opacity:1" />
          <path
             inkscape:connector-curvature="0"
             d="m 825.32321,433.48996 c -0.56314,1.07071 -1.22319,2.09386 -1.81003,3.1557 -0.53489,0.9273 -0.94858,1.89223 -1.34456,2.88482 -0.42289,0.89976 -0.89654,1.76184 -1.3151,2.66282 -0.36587,0.90343 -0.61274,1.85378 -1.05342,2.72109 -0.31024,0.57254 -0.41014,1.20678 -0.56783,1.82431 -0.30236,1.18402 -0.013,-0.43057 -0.22153,0.86742 -0.20041,0.62782 -0.4931,1.1966 -0.77265,1.7881 0,0 16.23126,-7.17312 16.23126,-7.17312 l 0,0 c 0.28679,-0.6764 0.50862,-1.38901 0.64569,-2.11131 0.26424,-0.82308 0.52041,-1.64161 0.89981,-2.42452 0.29023,-0.8977 0.65402,-1.77712 1.08547,-2.61701 0.45117,-0.90316 0.86424,-1.82562 1.28121,-2.74564 0.40387,-0.90893 0.84628,-1.79411 1.35602,-2.65116 0.63038,-1.05169 1.2312,-2.12922 1.99902,-3.08948 0,0 -16.41336,6.90798 -16.41336,6.90798 z"
             id="path4752-6-7-48-8"
             style="fill:#3771c8;fill-opacity:1;stroke:none;stroke-width:0;stroke-linecap:square;stroke-linejoin:round;stroke-miterlimit:4;stroke-dasharray:none;stroke-opacity:1" />
          <path
             inkscape:connector-curvature="0"
             d="m 815.76403,447.51526 c 0.87803,1.07466 1.11017,1.82116 0.96773,3.18356 -0.29001,1.39914 -0.91041,2.69527 -1.64249,3.91166 -0.33328,0.60029 -0.71563,1.14819 -1.00725,1.77324 0,0 16.25446,-7.0553 16.25446,-7.0553 l 0,0 c 0.34919,-0.58146 0.67573,-1.16914 0.93939,-1.79565 0.58342,-1.45951 1.16655,-2.92937 1.21072,-4.52668 -0.002,-0.3283 0.0267,-0.65809 -0.005,-0.98489 -0.11754,-1.22856 -0.77558,-2.31548 -1.30185,-3.39981 0,0 -15.4161,8.89387 -15.4161,8.89387 z"
             id="path4756-0-8-3-4"
             style="fill:#3771c8;fill-opacity:1;stroke:none;stroke-width:0;stroke-linecap:square;stroke-linejoin:round;stroke-miterlimit:4;stroke-dasharray:none;stroke-opacity:1" />
          <path
             inkscape:connector-curvature="0"
             d="m 826.39525,434.31468 c 0.33932,1.27245 0.35254,2.59534 0.37413,3.90172 -0.13253,0.92716 -0.39443,1.8194 -0.89799,2.61084 -0.59592,0.70303 -1.02163,1.67815 -1.25517,2.5665 -0.0789,0.52523 -0.11212,1.08196 -0.30812,1.57765 0,0 16.14743,-7.49035 16.14743,-7.49035 l 0,0 c 0.0618,-0.46947 0.15108,-0.95403 0.35284,-1.38415 0.39987,-0.8095 0.89385,-1.56897 1.2478,-2.39981 0.36478,-1.08832 0.65009,-2.20435 0.5162,-3.36267 -0.10008,-1.35048 -0.27158,-2.6966 -0.31159,-4.05091 0,0 -15.86553,8.03118 -15.86553,8.03118 z"
             id="path4758-1-1-1-6"
             style="fill:#3771c8;fill-opacity:1;stroke:none;stroke-width:0;stroke-linecap:square;stroke-linejoin:round;stroke-miterlimit:4;stroke-dasharray:none;stroke-opacity:1" />
          <path
             inkscape:connector-curvature="0"
             d="m 817.90425,420.93042 c -0.34165,1.06112 -0.25169,2.17738 -0.0202,3.24848 0.20675,0.68962 0.0797,0.35119 0.38288,1.01461 0,0 15.57496,-8.573 15.57496,-8.573 l 0,0 c -0.16906,-0.30829 -0.0913,-0.12506 -0.19639,-0.56383 -0.11768,-0.94904 0.11201,-1.82919 0.36583,-2.74093 0,0 -16.10712,7.61467 -16.10712,7.61467 z"
             id="path4760-3-1-64-2"
             style="fill:#3771c8;fill-opacity:1;stroke:none;stroke-width:0;stroke-linecap:square;stroke-linejoin:round;stroke-miterlimit:4;stroke-dasharray:none;stroke-opacity:1" />
          <path
             inkscape:connector-curvature="0"
             d="m 817.67387,421.65313 c 0.73935,0.5197 1.28338,1.24889 1.87334,1.92084 0,0 15.23656,-8.97907 15.23656,-8.97907 l 0,0 c -0.65168,-0.67146 -1.22103,-1.41909 -1.83834,-2.12221 0,0 -15.27156,9.18044 -15.27156,9.18044 z"
             id="path4762-8-1-1-5"
             style="fill:#3771c8;fill-opacity:1;stroke:none;stroke-width:0;stroke-linecap:square;stroke-linejoin:round;stroke-miterlimit:4;stroke-dasharray:none;stroke-opacity:1" />
          <path
             inkscape:connector-curvature="0"
             d="m 835.24835,415.29211 c -0.84115,-0.60743 -1.47776,-1.43602 -2.06745,-2.27795 -0.38694,-0.70461 -0.99084,-1.35481 -1.20679,-2.13956 -0.0266,-0.0978 -0.0532,-0.19559 -0.0799,-0.29338 0,0 -15.70161,8.37248 -15.70161,8.37248 l 0,0 c 0.0482,0.13019 0.0963,0.2604 0.1445,0.3906 0.41088,0.8694 0.93512,1.67957 1.48018,2.47065 0.6724,0.92508 1.4118,1.79301 2.15948,2.65759 0,0 15.27156,-9.18043 15.27156,-9.18043 z"
             id="path4764-6-3-2-4"
             style="fill:#3771c8;fill-opacity:1;stroke:none;stroke-width:0;stroke-linecap:square;stroke-linejoin:round;stroke-miterlimit:4;stroke-dasharray:none;stroke-opacity:1" />
          <path
             inkscape:connector-curvature="0"
             d="m 809.2099,477.92577 c 0.70215,1.10808 1.43897,2.19306 2.1758,3.27913 0.51251,0.85495 1.13497,1.62935 1.79968,2.36922 0.50424,0.53702 1.10184,0.95601 1.68182,1.40218 0.58818,0.4997 1.259,0.8575 1.92769,1.22939 0.58922,0.12048 1.05691,0.5159 1.61701,0.7097 0.62433,0.31369 1.30931,0.48533 1.96144,0.73412 0.46443,0.0601 0.88671,0.27161 1.33503,0.38696 0.23732,0.061 0.48643,0.0645 0.72582,0.11687 0.43812,0.13484 0.8917,0.0309 1.33311,0.0403 0.2239,0.005 0.44445,0.0593 0.66811,0.0709 0.46439,-0.0404 0.87135,0.19638 1.33541,0.20679 0,0 14.70183,-10.04938 14.70183,-10.04938 l 0,0 c -0.54094,-0.14441 -0.88004,0.0588 -1.38472,-0.26875 -0.21312,-0.0367 -0.43295,-0.0244 -0.64577,-0.0629 -0.13044,-0.0236 -0.24781,-0.1024 -0.37924,-0.11962 -0.10494,-0.0138 -0.21055,0.0341 -0.31622,0.0285 -0.64804,-0.0344 -0.12522,-0.14188 -0.68151,0.0239 -0.44593,0.0233 -0.21611,0.0412 -0.68802,-0.0701 -0.0879,-0.001 -0.16501,0.0881 -0.25227,0.0774 -0.12359,-0.0152 -0.22154,-0.11861 -0.34188,-0.15061 -0.97066,-0.25814 0.57527,0.34439 -0.63219,-0.16273 -0.70858,-0.0411 0.17848,0.0422 -0.64414,-0.16239 -0.0892,-0.0222 -0.18623,0.0113 -0.27542,-0.0108 -0.42769,-0.10577 -0.18461,-0.15751 -0.60915,-0.28425 -0.073,-0.0218 -0.15233,-0.005 -0.2285,-0.008 -0.099,-0.0534 -0.19798,-0.10687 -0.29696,-0.16029 -0.0754,-0.008 -0.15575,0.003 -0.22607,-0.0249 -0.4213,-0.16972 -0.76395,-0.46477 -1.18377,-0.64558 -0.52356,-0.0306 -1.26613,-0.44004 -1.66796,-0.77778 -0.55398,-0.37993 -1.07035,-0.78561 -1.58911,-1.20728 -0.71951,-0.50242 -1.1769,-1.33073 -1.70636,-2.01224 -0.74487,-1.0019 -1.55542,-1.97383 -1.99543,-3.15958 0,0 -15.51806,8.66156 -15.51806,8.66156 z"
             id="path4766-4-5-0-3"
             style="fill:#3771c8;fill-opacity:1;stroke:none;stroke-width:0;stroke-linecap:square;stroke-linejoin:round;stroke-miterlimit:4;stroke-dasharray:none;stroke-opacity:1" />
          <path
             inkscape:connector-curvature="0"
             d="m 837.64976,475.35019 c 0.91412,0.5036 1.66146,1.25449 2.44155,1.93869 0.53661,0.46387 1.10904,0.85788 1.56178,1.40879 0.55817,0.54309 0.97843,1.11773 1.30365,1.81933 0.37126,0.64363 0.45385,1.37181 0.68669,2.06757 0,0 15.71035,-8.35114 15.71035,-8.35114 l 0,0 c -0.22374,-0.77421 -0.43538,-1.54873 -0.8249,-2.26197 -0.37938,-0.8061 -0.80452,-1.56697 -1.47672,-2.17034 -0.48847,-0.66369 -1.02163,-1.30629 -1.77892,-1.67355 -0.82475,-0.73194 -1.73697,-1.35497 -2.49284,-2.16792 0,0 -15.13064,9.39054 -15.13064,9.39054 z"
             id="path4768-1-5-6-6"
             style="fill:#3771c8;fill-opacity:1;stroke:none;stroke-width:0;stroke-linecap:square;stroke-linejoin:round;stroke-miterlimit:4;stroke-dasharray:none;stroke-opacity:1" />
          <path
             inkscape:connector-curvature="0"
             d="m 847.66749,465.17453 c 0.79279,0.83818 1.40163,1.82727 1.99658,2.80993 0.32383,0.58727 0.82382,1.28831 0.76371,1.99636 -0.0221,0.70566 0.14731,1.39208 0.11464,2.09908 0.0299,0.57497 0.0544,0.30806 -0.0467,0.80281 0,0 15.98047,-7.7517 15.98047,-7.7517 l 0,0 c -0.0203,-0.6333 -0.0147,-0.32738 -0.0183,-0.91771 -0.0396,-0.79343 -0.0734,-1.59258 -0.19304,-2.37756 -0.26551,-0.91555 -0.63147,-1.77997 -1.19883,-2.555 -0.65549,-1.00368 -1.36158,-1.97446 -1.98237,-3.00006 0,0 -15.41611,8.89385 -15.41611,8.89385 z"
             id="path4770-1-53-75-3"
             style="fill:#3771c8;fill-opacity:1;stroke:none;stroke-width:0;stroke-linecap:square;stroke-linejoin:round;stroke-miterlimit:4;stroke-dasharray:none;stroke-opacity:1" />
          <path
             inkscape:connector-curvature="0"
             d="m 850.57412,475.5341 c 0.75669,0.75795 1.19278,1.7442 1.46536,2.76343 0.096,0.31192 0.17735,0.69607 0.14325,1.02909 -0.0419,0.40966 -0.1376,-0.0148 -0.18662,0.43389 -0.0171,0.15653 0.0181,0.31441 0.0271,0.47161 -0.075,0.36211 -0.11013,0.72722 -0.3275,1.03972 -0.0661,0.095 -0.17143,0.15993 -0.23097,0.25915 -0.77542,1.29238 0.41026,-0.4015 -0.35399,0.66013 -0.0815,0.0707 -0.16294,0.14141 -0.24441,0.21211 0,0 16.39382,-6.91341 16.39382,-6.91341 l 0,0 c 0.0538,-0.13096 0.10768,-0.26193 0.16153,-0.39287 0.0911,-0.24351 0.21993,-0.47234 0.30341,-0.71856 0.20639,-0.60887 0.23208,-1.27497 0.28723,-1.90881 0.20248,-0.84969 -0.038,-1.70513 -0.32401,-2.51035 -0.43698,-1.1701 -1.07509,-2.23992 -1.69809,-3.31901 0,0 -15.4161,8.89388 -15.4161,8.89388 z"
             id="path4772-6-1-86-0"
             style="fill:#3771c8;fill-opacity:1;stroke:none;stroke-width:0;stroke-linecap:square;stroke-linejoin:round;stroke-miterlimit:4;stroke-dasharray:none;stroke-opacity:1" />
          <path
             inkscape:connector-curvature="0"
             d="m 855.28211,456.89487 c 0.15196,1.10354 -0.0151,2.20641 -0.0105,3.31337 -0.12496,0.76784 -0.23074,1.52464 -0.37848,2.29215 -0.051,0.10122 -0.11698,0.19621 -0.15293,0.3037 -0.0446,0.1334 -0.0416,0.27978 -0.0867,0.41302 -0.16076,0.47498 -0.48169,0.84708 -0.63576,1.32313 -0.0605,0.0965 -0.12093,0.1929 -0.1814,0.28935 -0.0766,0.0726 -0.17328,0.1286 -0.23002,0.21771 -0.0692,0.10833 -0.0785,0.24624 -0.13869,0.35982 -0.0486,0.0917 -0.14339,0.15532 -0.18485,0.25043 -0.45701,1.04836 0.23104,-0.15345 -0.24118,0.63222 0,0 16.32418,-7.15149 16.32418,-7.15149 l 0,0 c 0.24892,-0.63244 0.75779,-1.1379 0.89739,-1.83024 0.39326,-0.73429 0.54912,-1.5841 0.69674,-2.39565 0.12767,-0.83669 0.2342,-1.6735 0.19631,-2.52265 0.0247,-1.14832 0.004,-2.29696 0.0611,-3.44403 0,0 -15.93517,7.94916 -15.93517,7.94916 z"
             id="path4774-3-8-4-4"
             style="fill:#3771c8;fill-opacity:1;stroke:none;stroke-width:0;stroke-linecap:square;stroke-linejoin:round;stroke-miterlimit:4;stroke-dasharray:none;stroke-opacity:1" />
          <path
             inkscape:connector-curvature="0"
             d="m 844.90239,368.03677 c 0.0318,1.26561 -0.38226,2.47426 -0.61789,3.70701 -0.0698,0.98313 -0.40895,1.92673 -0.67667,2.87095 -0.35227,1.06344 -0.53971,2.15503 -0.47897,3.27379 0.0203,0.87444 0.19724,1.71846 0.17841,2.59451 0.0632,0.71899 -0.17991,1.50373 -0.51763,2.1376 -0.41177,0.94516 -0.80514,1.88858 -1.21332,2.83447 -0.21773,1.1124 -0.64824,2.14507 -0.75087,3.27966 -0.27893,0.83782 -0.0886,1.72391 -0.0674,2.58464 0.0289,0.8735 0.36659,1.7322 0.36151,2.60144 0.12817,0.45836 0.0455,0.92207 0.10269,1.3819 0.0678,0.54532 0.10458,0.20665 0.0259,0.61337 0.007,0.75494 -0.12705,1.50526 -0.20557,2.25755 -2.8e-4,0.17063 0.015,0.34199 -8.3e-4,0.51188 -0.0122,0.13021 -0.0655,0.25387 -0.0827,0.38351 -0.0759,0.57304 -0.0549,1.15077 -0.0799,1.72651 0.009,0.15893 0.0345,0.31774 0.0275,0.47676 -0.005,0.11707 -0.0527,0.22903 -0.0641,0.34565 -0.0506,0.51786 0.0182,1.03998 -0.10395,1.54526 0.0362,0.73865 -0.0697,1.46214 -0.0196,2.20296 0.14586,0.86512 0.17023,1.74043 0.33692,2.6027 0,0 15.79351,-8.10491 15.79351,-8.10491 l 0,0 c -0.0949,-0.78738 -0.16134,-1.58304 -0.18021,-2.37534 0.0497,-0.67967 0.0201,-1.35664 0.0945,-2.03335 -0.002,-0.81471 0.0872,-1.62734 0.0732,-2.44243 0.0375,-0.83781 0.14265,-1.67168 0.19637,-2.50795 0.0966,-0.83005 0.25461,-1.65513 0.18396,-2.49571 -0.0952,-0.70645 -0.12299,-1.41963 -0.24454,-2.1239 -0.1571,-0.81507 -0.29099,-1.63984 -0.31064,-2.47122 -0.0287,-0.77004 0.0271,-1.51655 0.18455,-2.27188 0.24168,-0.97225 0.49201,-1.95974 0.91369,-2.86991 0.41529,-0.97673 0.83032,-1.95585 1.19552,-2.95271 0.20934,-0.91371 0.40058,-1.81061 0.26758,-2.75366 -0.0651,-0.8378 -0.2313,-1.66607 -0.18819,-2.50998 0.0912,-0.97441 0.38064,-1.90476 0.66005,-2.83905 0.26936,-0.98445 0.47624,-1.97332 0.57627,-2.98993 0.23371,-1.25328 0.45177,-2.51118 0.71764,-3.75589 0,0 -16.08669,7.5657 -16.08669,7.5657 z"
             id="path4776-7-0-38-8"
             style="fill:#3771c8;fill-opacity:1;stroke:none;stroke-width:0;stroke-linecap:square;stroke-linejoin:round;stroke-miterlimit:4;stroke-dasharray:none;stroke-opacity:1" />
          <path
             inkscape:connector-curvature="0"
             d="m 851.23794,357.68975 c 0.35867,1.19959 0.31671,2.45891 0.33854,3.69598 -0.0526,1.09464 -0.18084,2.17997 -0.0711,3.27434 -0.0474,0.66531 0.19019,1.28874 0.30844,1.92782 0.0423,0.22881 0.0382,0.46411 0.0715,0.69441 0.21904,0.77228 0.43324,1.54532 0.67122,2.31305 0.13549,0.73026 0.19325,1.4691 0.22587,2.21348 0.13,0.71566 -0.13456,1.3752 -0.0681,2.09201 -0.2465,0.93552 0.13315,-0.33012 -0.21924,0.39312 -0.0462,0.0948 -0.0261,0.21217 -0.0677,0.30905 -0.10408,0.24199 -0.39159,0.34189 -0.6067,0.44608 -0.0516,0.10598 -0.10318,0.21197 -0.15477,0.31795 0,0 16.42938,-6.90383 16.42938,-6.90383 l 0,0 c 0.0666,-0.0654 0.13318,-0.1308 0.19977,-0.19619 0.28538,-0.71514 0.44527,-1.47724 0.3913,-2.24772 0.10516,-0.7318 0.0613,-1.46034 -0.021,-2.19392 -0.0874,-0.85462 -0.15382,-1.71116 -0.40427,-2.53923 -0.19281,-0.70523 -0.41438,-1.40524 -0.54871,-2.12388 -0.143,-0.81437 -0.37575,-1.61221 -0.35757,-2.44933 -0.0227,-1.06049 0.0853,-2.12058 0.024,-3.1811 -0.0597,-1.34474 -0.20944,-2.67966 -0.31045,-4.02147 0,0 -15.83031,8.17938 -15.83031,8.17938 z"
             id="path4778-0-7-4-4"
             style="fill:#3771c8;fill-opacity:1;stroke:none;stroke-width:0;stroke-linecap:square;stroke-linejoin:round;stroke-miterlimit:4;stroke-dasharray:none;stroke-opacity:1" />
          <path
             inkscape:connector-curvature="0"
             d="m 865.89109,366.20327 c -0.74233,-0.83348 -1.43674,-1.74944 -1.9131,-2.76339 -0.34042,-0.75869 -0.43275,-1.57976 -0.49972,-2.39505 -0.11411,-0.85939 -0.47112,-1.65168 -0.84634,-2.42371 -0.38801,-0.8032 -1.00476,-1.4624 -1.53257,-2.1739 -0.22024,-0.54056 -0.20813,-0.89436 0.34772,-1.15975 0.0916,-0.0381 0.19657,-0.0533 0.27487,-0.11419 0.19374,-0.15075 0.32033,-0.37544 0.51012,-0.53114 0.30694,-0.25182 0.64898,-0.4535 0.98798,-0.65763 0.8831,-0.49667 1.77284,-0.98138 2.65738,-1.47559 5.07672,-2.83631 10.03647,-5.60719 -13.93299,7.77784 -0.19215,0.1073 0.38491,-0.2135 0.5775,-0.31999 0.49049,-0.27109 0.98152,-0.5412 1.47235,-0.81167 0.61518,-0.47767 1.36986,-0.6758 2.10078,-0.89557 0.62642,-0.0253 1.24108,-0.22909 1.86846,-0.23712 0.3136,-0.004 0.62576,0.0434 0.93885,0.0616 0.93339,0.0502 1.83975,0.28363 2.75867,0.42999 1.10404,0.12743 2.18731,0.36321 3.25787,0.65683 0.82214,0.24602 1.60809,0.56016 2.35604,0.97926 0.5752,0.34954 1.25364,0.40709 1.84963,0.69313 0.70087,0.34625 1.29313,0.87601 1.86628,1.39965 0.64721,0.53823 1.36523,0.98053 2.0628,1.44869 0.7338,0.49316 1.48542,0.96237 2.1965,1.48822 0.69619,0.58659 1.42923,1.11166 2.20556,1.58568 0.49347,0.13362 0.89291,0.47315 1.35874,0.66295 0.19888,0.081 0.4166,0.10457 0.62432,0.15911 0.74529,0.1186 1.29293,0.41557 1.84817,0.90778 0.64259,0.57931 1.23166,1.21522 1.92187,1.73989 0.54574,0.43996 1.09174,0.88244 1.61954,1.34469 0.53082,0.3012 0.92172,0.72002 1.27525,1.20876 0.44176,0.6565 0.82355,1.35077 1.20979,2.04067 0.38409,0.71159 0.59691,1.50211 0.90533,2.25031 0.3898,0.74542 0.59667,1.5587 0.88821,2.34379 0.19355,0.78974 0.42353,1.56513 0.48841,2.37856 0.20094,0.79157 0.12902,1.59628 0.19075,2.40105 -0.0223,0.0979 -0.0555,0.19391 -0.067,0.29364 -0.0283,0.24468 0.0164,0.48569 -0.0475,0.72781 -0.085,0.32202 -0.2815,0.66277 -0.39235,0.98061 -0.46143,0.81463 -0.56307,2.08912 -0.62868,3.02921 -0.11961,1.0225 -0.15044,2.04664 -0.32501,3.06273 -0.1543,1.03743 -0.56442,1.99025 -0.82321,2.99864 -0.19933,0.8185 -0.14973,1.72693 -0.50132,2.50249 -0.26925,1.34119 0.1056,-0.33712 -0.23768,0.73594 -0.0416,0.12991 -0.0335,0.27238 -0.0755,0.40214 -0.0314,0.0972 -0.11207,0.17378 -0.14238,0.27131 -0.24062,0.77424 0.12123,0.0495 -0.19319,0.62285 -0.31392,0.63233 -0.64316,1.24613 -0.88629,1.92375 -0.43447,0.72302 -0.84197,1.4458 -1.19544,2.21215 -0.0757,0.10203 -0.16909,0.1931 -0.22723,0.3061 -0.1267,0.24624 -0.17285,0.58812 -0.26274,0.84561 -0.15513,0.44435 -0.4034,0.765 -0.70924,1.11364 -0.65005,0.92581 -1.34375,1.84338 -2.15618,2.63486 -0.78334,0.92185 -1.56216,1.85534 -2.4366,2.69064 -0.61381,0.87126 -1.43782,1.51795 -2.33438,2.07209 -0.7099,0.78177 -1.65291,1.32855 -2.55034,1.87319 -0.29684,0.40727 -0.76498,0.6494 -1.10996,1.002 -1.53021,1.56406 0.92362,-0.74428 -0.65942,0.72151 0,0 16.47157,-6.52276 16.47157,-6.52276 l 0,0 c 0.56028,-0.54492 1.19717,-1.03203 1.86775,-1.43406 0.87273,-0.63508 1.68353,-1.346 2.54347,-1.99239 0.77708,-0.71844 1.42744,-1.54657 2.15808,-2.3094 0.79921,-0.92792 1.62492,-1.83318 2.4313,-2.75563 0.72291,-0.95101 1.4748,-1.88228 2.08882,-2.91021 0.38206,-0.82042 0.69893,-1.66461 1.16933,-2.43788 0.41777,-0.75192 0.81898,-1.51635 1.15216,-2.31049 0.34607,-0.6721 0.66143,-1.35037 0.87453,-2.07597 0.14189,-0.71104 0.41068,-1.39234 0.54879,-2.1078 0.12471,-0.83489 0.25635,-1.6728 0.46953,-2.48878 0.30101,-1.04778 0.57703,-2.10309 0.70813,-3.18881 0.11776,-1.03207 0.1709,-2.07034 0.31753,-3.09952 0.0877,-0.4785 0.162,-0.96981 0.31031,-1.43449 0.23024,-0.72136 0.0782,-0.0821 0.35705,-0.82758 0.0587,-0.15697 0.0932,-0.32195 0.13985,-0.48293 0.2448,-0.84193 0.31895,-1.71123 0.25393,-2.58658 -0.0185,-0.84707 -0.14888,-1.67463 -0.27959,-2.51032 -0.1543,-0.92594 -0.37226,-1.83844 -0.65713,-2.73338 -0.28816,-0.8081 -0.5308,-1.63286 -0.91843,-2.40177 -0.32739,-0.81763 -0.56379,-1.6782 -1.00874,-2.44295 -0.41214,-0.73959 -0.82101,-1.48192 -1.2753,-2.1968 -0.43893,-0.66105 -0.90137,-1.33576 -1.5738,-1.78058 -0.54663,-0.23063 -1.14739,-0.93028 -1.62993,-1.2898 -0.19077,-0.13205 -0.40703,-0.22601 -0.59209,-0.36596 -0.4662,-0.35256 -0.82298,-0.83412 -1.25819,-1.22022 -0.68819,-0.60411 -1.28964,-1.34881 -2.22343,-1.57768 -0.0133,-0.005 -0.63023,-0.21444 -0.65153,-0.21686 -0.43254,-0.0492 -0.0519,0.19235 -0.52737,-0.0412 -0.13078,-0.0643 -0.23871,-0.16831 -0.36672,-0.23794 -0.11243,-0.0612 -0.23476,-0.10206 -0.35215,-0.15309 -0.76208,-0.11649 -1.36003,-0.72151 -1.97066,-1.14721 -0.71677,-0.61774 -1.5267,-1.09759 -2.29178,-1.65061 -0.67182,-0.41318 -1.30837,-0.88265 -1.95698,-1.32896 -0.73638,-0.45039 -1.28177,-1.18853 -2.01686,-1.65366 -0.35181,-0.21074 -0.68569,-0.50275 -1.0779,-0.63604 -0.0926,-0.0315 -0.19313,-0.0317 -0.28969,-0.0476 -0.0825,-0.006 -0.16884,0.007 -0.2474,-0.0193 -0.11558,-0.0381 -0.21576,-0.11262 -0.32364,-0.16893 -0.89191,-0.18705 -1.61056,-0.90694 -2.54782,-0.99353 -1.0803,-0.40684 -2.20636,-0.70098 -3.33232,-0.95273 -0.95075,-0.1466 -1.89443,-0.2642 -2.83328,-0.4875 -0.99229,-0.14825 -1.9968,-0.33963 -2.99873,-0.16231 -0.88502,-0.0358 -1.71796,0.15516 -2.57323,0.37521 -6.18366,3.46922 -12.38569,6.90559 -18.57133,10.37125 -0.93541,0.5307 -1.89548,1.04453 -2.69956,1.76877 -0.60674,0.58719 -1.24036,1.2596 -1.50903,2.06768 -0.12693,0.99864 0.0198,2.00442 0.56756,2.86717 0.4544,0.62684 1.00099,1.19901 1.35641,1.88703 0.28204,0.61146 0.52355,1.23485 0.5708,1.91455 0.15123,0.99926 0.43193,1.99494 0.86991,2.90637 0.57977,1.08265 1.35767,2.03655 1.97844,3.09542 0,0 15.4161,-8.89387 15.4161,-8.89387 z"
             id="path4780-8-6-9-0"
             style="fill:#3771c8;fill-opacity:1;stroke:none;stroke-width:0;stroke-linecap:square;stroke-linejoin:round;stroke-miterlimit:4;stroke-dasharray:none;stroke-opacity:1" />
          <path
             inkscape:connector-curvature="0"
             d="m 884.44074,391.6577 c -0.0439,0.1561 -0.0652,0.32042 -0.13169,0.46829 -0.0753,0.1673 -0.19862,0.3087 -0.28961,0.46799 -0.91058,1.59399 0.30609,-0.46896 -0.61879,1.21147 -0.45564,0.73633 -0.23829,0.36342 -0.65236,1.11856 -0.65445,0.78557 -1.18548,1.6972 -1.91179,2.41662 -0.64606,0.99018 -1.43879,1.86209 -2.13998,2.80735 -0.75629,0.93363 -1.58701,1.80259 -2.31761,2.7539 -0.86152,0.8316 -1.47127,1.84134 -2.16492,2.80033 -0.61255,1.19823 -1.27086,2.36767 -2.05605,3.46308 -0.26621,0.52386 -0.63976,0.95899 -1.0406,1.38033 0,0 16.35224,-6.77301 16.35224,-6.77301 l 0,0 c 0.30629,-0.49352 0.5974,-0.99606 0.91639,-1.48163 0.67855,-1.16248 1.33758,-2.34351 2.14358,-3.42385 0.65231,-0.94784 1.48513,-1.75236 2.1864,-2.66389 0.80144,-0.8998 1.54723,-1.85048 2.29566,-2.79458 0.75638,-0.91349 1.41909,-1.90128 2.20624,-2.79063 0.60081,-0.88145 1.28701,-1.7095 1.72281,-2.69423 0.63162,-1.15353 1.22732,-2.32618 1.77177,-3.52246 0,0 -16.27169,7.25636 -16.27169,7.25636 z"
             id="path4782-7-7-18-3"
             style="fill:#3771c8;fill-opacity:1;stroke:none;stroke-width:0;stroke-linecap:square;stroke-linejoin:round;stroke-miterlimit:4;stroke-dasharray:none;stroke-opacity:1" />
          <path
             inkscape:connector-curvature="0"
             d="m 885.55134,384.13106 c 0.008,1.01995 -0.24842,2.04778 -0.5507,3.02081 -0.51475,0.93178 0.0917,-0.22684 -0.34149,0.8182 -0.0479,0.11553 -0.13936,0.21008 -0.18446,0.32673 -0.15609,0.40377 -0.14278,0.58671 -0.46854,0.88744 -0.44922,0.61141 -0.80851,1.26014 -1.07396,1.98112 -0.0496,0.15076 -0.10057,0.30106 -0.14875,0.45227 -0.13698,0.42995 -0.12435,0.51665 -0.36164,0.89255 -0.26321,0.41697 -0.52511,0.5598 -0.77381,1.01988 -0.0783,0.0985 -0.16654,0.18995 -0.23492,0.29562 -0.55698,0.86084 0.19447,-0.14736 -0.41718,0.76035 -0.26792,0.39759 -0.62327,0.70656 -0.90032,1.10037 -0.58632,0.77248 -1.25277,1.46129 -1.78544,2.2749 -0.73465,0.75726 -1.32354,1.64092 -2.0924,2.36513 -1.09243,1.34135 -2.30548,2.58084 -3.44675,3.88106 -0.96649,1.1412 -1.93291,2.27252 -2.74494,3.53023 -1.27268,1.33726 -2.63236,2.55941 -3.6098,4.14336 -0.63752,1.22744 -0.4581,2.44066 0.0214,3.67307 0.38111,0.83143 0.8211,1.63966 1.33833,2.39414 0.31943,0.35434 0.44203,0.54192 0.88565,0.78921 0.36464,0.20325 1.12067,0.36589 1.52014,0.15205 5.29735,-2.83586 10.53703,-5.77815 15.80555,-8.66723 0.83544,-0.91956 1.62307,-1.88252 2.5781,-2.68542 0.72874,-0.84382 0.71622,-1.89225 0.62397,-2.94157 -0.0715,-0.56505 -0.2998,-1.10762 -0.30304,-1.68219 -4.5e-4,-0.0792 0.0362,-0.15419 0.0543,-0.23128 -7.3e-4,-0.10792 -10e-4,-0.21583 -0.002,-0.32375 0,0 -15.96154,7.9088 -15.96154,7.9088 l 0,0 c 0.0223,0.73723 0.27319,1.43964 0.27218,2.1757 -0.14069,0.88506 -0.46532,1.04009 -1.13463,1.60619 -0.81972,0.87352 -1.62603,1.82018 -2.75697,2.29268 4.98234,-2.72715 9.96468,-5.45431 14.94702,-8.18146 -0.0685,0.0468 -0.55005,0.37207 -0.63714,0.4442 -0.078,0.0646 -0.15608,0.13181 -0.21729,0.21255 -0.0529,0.0698 -0.0528,0.17821 -0.12082,0.23347 -0.0406,0.033 -0.10458,-0.005 -0.15687,-0.008 -0.50806,-0.51223 -0.7602,-1.2614 -1.08849,-1.8928 -0.25476,-0.79783 -10e-4,-1.40443 0.51402,-2.05707 1.17022,-1.45155 2.62143,-2.64931 3.69785,-4.17934 0.85317,-1.12645 1.74446,-2.2252 2.68965,-3.27605 1.20301,-1.30744 2.36721,-2.65151 3.61173,-3.92015 0.69195,-0.8471 1.43082,-1.65448 2.06237,-2.54897 0.6308,-0.73658 1.22793,-1.49285 1.80038,-2.27619 0.58331,-0.72037 1.01914,-1.54946 1.53548,-2.31663 0.56556,-0.76857 0.71421,-1.73012 1.20694,-2.54199 0.39782,-0.63461 0.80957,-1.24573 1.1494,-1.91221 0.2329,-0.80619 0.54305,-1.58302 0.72675,-2.40314 0.221,-1.06203 0.33965,-2.14518 0.58007,-3.20157 0,0 -16.10712,7.61468 -16.10712,7.61468 z"
             id="path4784-4-8-48-6"
             style="fill:#3771c8;fill-opacity:1;stroke:none;stroke-width:0;stroke-linecap:square;stroke-linejoin:round;stroke-miterlimit:4;stroke-dasharray:none;stroke-opacity:1" />
          <path
             inkscape:connector-curvature="0"
             d="m 859.26438,363.931 c 0.88103,0.71769 1.75406,1.4498 2.60439,2.20431 0.79959,0.71145 1.64491,1.36497 2.52092,1.97809 0.7223,0.47719 1.36494,1.16749 2.24825,1.30897 0.12344,0.0301 0.24688,0.0601 0.37032,0.0901 0,0 14.61236,-10.18876 14.61236,-10.18876 l 0,0 c -0.0929,0.0163 -0.18572,0.0325 -0.27858,0.0488 -0.66501,-0.10423 -0.0375,-0.0677 -0.57232,0.0553 -0.51417,0.11822 -0.85709,-0.42118 -1.26441,-0.6239 -0.81652,-0.62078 -1.76808,-1.04677 -2.48623,-1.80249 -0.83328,-0.74347 -1.78101,-1.37265 -2.48314,-2.25089 0,0 -15.27156,9.18044 -15.27156,9.18044 z"
             id="path4786-4-7-27-0"
             style="fill:#3771c8;fill-opacity:1;stroke:none;stroke-width:0;stroke-linecap:square;stroke-linejoin:round;stroke-miterlimit:4;stroke-dasharray:none;stroke-opacity:1" />
          <path
             inkscape:connector-curvature="0"
             d="m 872.49875,358.93124 c 1.16318,0.0641 2.28368,0.35664 3.35917,0.79029 0.84509,0.3222 1.52523,0.92763 2.26988,1.41882 0.58255,0.33283 0.97081,0.85482 1.33415,1.40227 0.55831,0.78351 1.25144,1.45215 1.95774,2.09954 0.61741,0.47433 1.12037,1.05214 1.56428,1.68657 0.49258,0.74482 0.93675,1.51892 1.36845,2.30011 0.38083,0.75048 0.48019,1.52532 0.55888,2.34407 -9.6e-4,0.13965 -0.002,0.2793 -0.003,0.41895 0,0 15.86707,-7.91324 15.86707,-7.91324 l 0,0 c -0.015,-0.17573 -0.03,-0.35147 -0.045,-0.5272 -0.13083,-1.03852 -0.42954,-2.02417 -0.89956,-2.96256 -0.46553,-0.82496 -0.9033,-1.66691 -1.41888,-2.46213 -0.51829,-0.76351 -1.08152,-1.50081 -1.80736,-2.08158 -0.62478,-0.48594 -1.20271,-1.03746 -1.68125,-1.66619 -0.47795,-0.75325 -0.98827,-1.4998 -1.71384,-2.03855 -0.22179,-0.14384 -0.46697,-0.24935 -0.68855,-0.39354 -0.61556,-0.40056 -1.15629,-0.92825 -1.83335,-1.23632 -1.1251,-0.50213 -2.26413,-0.95167 -3.47135,-1.21995 0,0 -14.71762,10.04064 -14.71762,10.04064 z"
             id="path4788-8-6-2-8"
             style="fill:#3771c8;fill-opacity:1;stroke:none;stroke-width:0;stroke-linecap:square;stroke-linejoin:round;stroke-miterlimit:4;stroke-dasharray:none;stroke-opacity:1" />
          <path
             inkscape:connector-curvature="0"
             d="m 879.73525,444.31264 c 0.64895,1.09862 1.25922,2.21954 1.87528,3.33679 0.38004,0.75839 0.91508,1.41558 1.56117,1.95955 0.71786,0.55547 1.61919,0.75364 2.47256,1.00712 2.69353,1.05925 0.81725,1.28422 4.81719,-1.66779 -0.81408,-0.38703 -1.5543,-0.9053 -2.33015,-1.36141 -0.7063,-0.37908 -1.22062,-0.99503 -1.80448,-1.52673 -0.6917,-0.5417 -1.46222,-0.98468 -2.27647,-1.31281 -1.73097,-0.38762 -2.51658,0.86632 -4.32016,2.18046 -0.14163,0.10321 0.26894,1.08212 0.31196,1.19775 0.49512,0.95168 1.3916,1.57796 2.26588,2.15382 0.91105,0.60966 1.94639,0.9054 3.01217,1.10078 1.01138,0.14405 2.02687,0.25739 3.0427,0.36547 1.18219,0.14628 2.37415,0.19296 3.56166,0.28883 1.18036,0.11881 2.31813,0.32648 3.41712,0.77494 1.79425,0.76077 0.48111,1.10749 3.87131,-1.92036 0.15828,-0.14139 -0.42569,0.003 -0.63626,-0.024 -0.83683,-0.10557 -1.44496,-0.28635 -2.27117,-0.4927 -1.98864,-0.47029 -3.90967,-1.17134 -5.93572,-1.46294 -0.32141,-0.0357 -0.64185,-0.0819 -0.96427,-0.10721 -0.1869,-0.0146 -2.1874,-0.17013 -2.31745,-0.0878 -3.72994,2.3615 -4.40409,1.74831 -2.80484,2.72323 1.88876,0.83286 3.86508,1.45963 5.85224,2.0106 1.63758,0.48679 3.29565,0.91803 4.90862,1.48317 0.9012,0.22709 1.68094,0.73592 2.54444,1.05598 1.88258,0.49417 1.59745,0.54247 3.90579,-2.37102 0.16065,-0.20276 -0.44809,-0.25904 -0.6779,-0.37783 -0.25319,-0.13086 -0.51364,-0.24721 -0.77045,-0.37082 -1.2276,-0.5821 -2.40983,-1.25806 -3.54797,-1.99913 -1.58965,-1.18178 0.15419,-1.28109 -3.82211,1.74518 -0.0963,0.0732 0.243,-0.0417 0.36221,-0.0212 0.36982,0.0636 0.95458,0.34508 1.27466,0.4837 2.04868,0.82445 4.17902,1.44239 6.28728,2.09817 1.59926,0.42391 2.97257,1.30566 4.31002,2.24078 0.70956,0.52334 1.44259,1.01107 2.14509,1.54473 0.47609,0.47336 1.19219,0.73606 1.41668,1.4048 0.0303,0.14116 0.11339,0.39667 0.0412,0.54862 -0.0821,0.17286 -0.65607,0.39438 -0.4919,0.29604 3.16904,-1.89857 4.44404,-2.12345 2.79481,-1.77387 -1.10012,0.0493 -2.07387,-0.47875 -2.99665,-1.01251 -1.08073,-0.6423 -2.25916,-1.07447 -3.43934,-1.4904 -1.29827,-0.69855 -2.6258,-1.33995 -3.93574,-2.01639 -1.49504,-0.81166 -2.9084,-1.75763 -4.32892,-2.68989 -0.15998,-0.11096 -0.31743,-0.22568 -0.47994,-0.33289 -0.0447,-0.0295 -0.92473,-0.55327 -0.96798,-0.52708 -3.71954,2.252 -4.46437,1.32327 -3.22611,2.5736 1.00671,1.01981 2.20864,1.69967 3.50969,2.26738 1.79618,0.5953 3.64566,1.00424 5.45095,1.57577 1.03696,0.29769 2.01377,0.77754 3.05131,1.06669 0.7757,0.17441 1.57625,0.16694 2.35979,0.28538 1.56731,0.30345 0.72306,0.19608 3.71375,-2.264 0.11162,-0.0918 -0.21022,-0.19866 -0.32052,-0.29206 -0.41801,-0.35401 -0.84356,-0.70185 -1.26631,-1.05058 -1.06029,-0.9979 -2.27439,-1.73937 -3.58255,-2.36021 -1.97608,-0.95211 -4.1044,-1.52054 -6.20797,-2.11192 -1.12999,-0.32309 -2.28148,-0.54789 -3.42885,-0.79644 -1.51897,-0.34046 -3.01896,-0.75874 -4.51807,-1.17644 -1.41347,-0.44806 -2.87287,-0.71545 -4.29556,-1.12726 -0.18887,0.0696 -1.67996,-0.80967 -1.76165,-0.78769 -0.067,0.018 0.19058,0.11988 0.13367,0.15957 -1.09431,0.76284 -2.26473,1.41022 -3.39708,2.11536 1.71344,0.32125 3.37858,0.86596 5.00522,1.48504 1.46187,0.49606 2.76381,1.28966 4.02645,2.15774 1.15417,0.76445 2.35945,1.44832 3.62145,2.01645 1.67516,0.59709 3.39124,1.06711 5.08123,1.62197 1.31943,0.37809 2.62653,0.7935 3.94643,1.16935 0.80804,0.22322 1.38585,0.8306 2.03587,1.31877 0.40349,0.2942 0.79659,0.60279 1.18927,0.91137 0,0 3.52874,-2.15342 3.52874,-2.15342 l 0,0 c -0.39347,-0.31844 -0.79325,-0.62924 -1.19961,-0.9306 -0.70908,-0.47979 -1.28125,-1.17134 -2.12819,-1.42707 -1.32327,-0.38094 -2.65035,-0.75043 -3.97406,-1.13318 -1.68057,-0.54412 -3.37352,-1.04208 -5.05242,-1.58844 -1.24058,-0.55751 -2.4219,-1.23062 -3.56564,-1.96659 -1.2958,-0.87754 -2.60964,-1.72194 -4.11003,-2.21723 -1.63079,-0.6281 -3.29596,-1.14146 -4.97631,-1.61873 -4.21595,2.29208 -4.99563,1.86638 -1.82173,3.14049 1.42963,0.42153 2.90128,0.66312 4.32355,1.11476 1.49687,0.41697 2.9921,0.84288 4.50118,1.21348 1.14944,0.26403 2.30869,0.47517 3.45413,0.75609 2.09484,0.55774 4.21829,1.08189 6.1712,2.05105 1.27606,0.60165 2.46011,1.32373 3.49117,2.29846 2.26837,1.8625 0.88284,1.67697 5.03201,-0.84694 0.0642,-0.0392 -0.15039,-0.001 -0.2256,-0.002 -0.77381,-0.1863 -1.57422,-0.14153 -2.35711,-0.26976 -1.05997,-0.19856 -2.01988,-0.75323 -3.06523,-1.02074 -1.80247,-0.56126 -3.65074,-0.95579 -5.44866,-1.52676 -1.26003,-0.53867 -2.4395,-1.15914 -3.3693,-2.19474 -1.26373,-0.93745 -0.11332,-0.15808 -3.74651,1.9436 -0.0402,0.0224 0.0809,-0.0622 0.12641,-0.0558 0.21351,0.0306 0.61872,0.27364 0.76785,0.36741 0.1691,0.10634 0.32944,0.22599 0.49415,0.33897 1.44924,0.91869 2.88756,1.85478 4.38138,2.70124 1.31042,0.6903 2.64909,1.32729 3.91517,2.0988 1.16255,0.41023 2.35587,0.75548 3.41353,1.41331 0.974,0.57955 1.97013,1.15028 3.12573,1.24668 1.92732,-0.061 0.61525,0.0492 4.41521,-2.12713 0.46423,-0.26582 0.35188,-0.92751 0.2304,-1.33249 -0.3104,-0.7464 -0.94343,-1.09364 -1.53983,-1.59583 -0.70427,-0.55052 -1.45207,-1.03161 -2.1789,-1.54914 -1.38628,-0.94631 -2.7964,-1.87214 -4.4442,-2.30196 -2.08569,-0.64037 -4.18303,-1.27613 -6.20867,-2.08649 -0.10268,-0.0497 -1.7139,-0.80814 -1.76742,-0.77964 -3.44427,1.83526 -4.71182,1.62756 -2.9728,2.96041 1.15437,0.75599 2.36602,1.42497 3.60854,2.02447 0.24886,0.11889 0.50122,0.23076 0.74659,0.35666 0.21167,0.10862 0.40026,0.42772 0.62392,0.34663 6.13189,-2.22342 4.86657,-1.73681 3.054,-2.05457 -0.88583,-0.28972 -1.6545,-0.82579 -2.5707,-1.03669 -1.62837,-0.58164 -3.31869,-0.97622 -4.97243,-1.47808 -1.95214,-0.51386 -3.88565,-1.13594 -5.72944,-1.96277 -1.58699,-0.86595 -0.55623,-0.44792 -4.03499,1.85378 -0.15585,0.10309 0.37302,-0.0288 0.55988,-0.0287 0.90996,5.4e-4 1.82726,0.0317 2.73058,0.14277 2.02864,0.25463 3.9535,0.93052 5.93868,1.4006 1.40824,0.39036 0.91554,0.27025 2.23532,0.57779 0.22026,0.0514 0.45952,0.25212 0.66156,0.15049 3.56262,-1.79154 4.98856,-1.87177 2.93258,-2.76585 -1.13213,-0.48697 -2.27693,-0.75771 -3.5077,-0.86908 -1.17601,-0.10125 -2.35376,-0.17106 -3.52472,-0.30169 -1.01575,-0.11347 -2.03167,-0.20181 -3.04481,-0.339 -1.02725,-0.1399 -2.02245,-0.40477 -2.90795,-0.96424 -0.80848,-0.51519 -1.66891,-1.045 -2.12317,-1.92422 -0.0619,-0.18424 -0.17936,-0.47341 -0.17922,-0.68113 4e-5,-0.0633 0.11243,-0.21007 0.0559,-0.18157 -1.17024,0.59025 -2.2876,1.28054 -3.44688,1.89204 -0.0719,0.0368 0.1005,-0.13704 0.17552,-0.16687 0.0968,-0.0386 0.20769,-0.0179 0.31152,-0.0268 0.79154,0.26041 1.50474,0.70442 2.18116,1.18551 0.60824,0.54688 1.14323,1.18047 1.85878,1.59536 0.78251,0.44675 1.52173,0.96031 2.31911,1.37898 4.36276,-2.44787 4.7846,-1.59612 2.12471,-2.83284 -0.80335,-0.25318 -1.66873,-0.38918 -2.37279,-0.87825 -0.6199,-0.50028 -1.15052,-1.09139 -1.51103,-1.8111 -0.62756,-1.11083 -1.26128,-2.21866 -1.85573,-3.3477 0,0 -3.60885,2.01431 -3.60885,2.01431 z"
             id="path4790-8-8-6-6"
             style="fill:#3771c8;fill-opacity:1;stroke:none;stroke-width:0;stroke-linecap:square;stroke-linejoin:round;stroke-miterlimit:4;stroke-dasharray:none;stroke-opacity:1" />
        </g>
        <path
           style="fill:#000000;fill-opacity:1"
           inkscape:connector-curvature="0"
           d="m 1683.8786,486.29097 c 1.3502,-5.54254 1.6279,-11.66154 0.8343,-18.21645 3.4321,0.65231 6.8236,-1.66266 7.7356,-5.40655 0.392,-1.60933 0.264,-3.24292 -0.2718,-4.68485 1.1201,-0.95761 1.9749,-2.30701 2.368,-3.92064 0.392,-1.60932 0.2642,-3.24345 -0.2716,-4.68539 1.1201,-0.95759 1.9749,-2.307 2.368,-3.92063 0.392,-1.60933 0.2642,-3.24346 -0.2716,-4.6854 1.12,-0.95759 1.9749,-2.30702 2.368,-3.92065 0.911,-3.73985 -0.98,-7.58525 -4.2563,-8.87648 3.6732,-5.26512 6.2153,-10.72319 7.5655,-16.26574 4.2387,-17.40085 -5.2939,-35.31869 -21.2476,-39.94078 -15.9519,-4.62158 -32.3854,5.77334 -36.6241,23.17422 -1.3502,5.54249 -1.6268,11.65696 -0.8322,18.21647 -3.4302,-0.65171 -6.8236,1.66268 -7.7346,5.40249 -0.3931,1.61364 -0.2633,3.24833 0.2696,4.68483 -1.1174,0.96298 -1.9739,2.31191 -2.366,3.92123 -0.3931,1.6136 -0.2633,3.24826 0.2696,4.68477 -1.1174,0.96268 -1.9739,2.31161 -2.3661,3.92118 -0.1197,0.49164 -0.1911,0.98833 -0.2191,1.47516 l -17.2311,-4.99216 c -3.6218,-1.04932 -7.3562,1.31025 -8.3193,5.2639 -0.9643,3.95851 1.2042,8.02825 4.8258,9.0775 l 23.084,6.68786 c -3.6606,5.25584 -6.2007,10.70554 -7.5489,16.23972 -4.2386,17.40064 5.2986,35.31548 21.2506,39.9371 15.9539,4.62184 32.3826,-5.77013 36.6213,-23.17071 z m -23.0679,-25.11006 c 2.4714,7.57658 3.194,14.21027 2.024,19.01324 -1.1556,4.74432 -5.6352,7.58018 -9.9873,6.31928 -4.352,-1.26088 -6.9505,-6.14737 -5.7947,-10.89171 1.17,-4.80291 4.8162,-10.17087 10.4096,-15.41087 l 3.3484,0.97006 z m -19.0198,12.91641 c -1.9263,7.90788 2.4079,16.05117 9.6593,18.15203 7.2516,2.10094 14.7197,-2.62297 16.6461,-10.53083 1.2324,-5.05927 0.8495,-11.52256 -1.0475,-18.73029 l 3.0573,0.88579 c 1.4376,6.06231 2.0694,12.65613 0.6199,18.60639 -2.3122,9.49218 -11.2728,15.16024 -19.975,12.63906 -8.7021,-2.52119 -13.9019,-12.2918 -11.5896,-21.78402 1.4494,-5.95023 4.9983,-11.33285 9.0055,-15.81766 l 3.0573,0.88575 c -4.9269,5.23069 -8.2008,10.63425 -9.4333,15.69378 z m 37.61,-96.58999 c 13.0544,3.78215 20.8523,18.43942 17.3844,32.67623 -1.4629,6.00484 -4.4693,11.41389 -8.0437,16.09579 l -2.9128,-0.84389 c 3.7058,-4.6214 6.8664,-10.01715 8.3271,-16.01365 3.0831,-12.65681 -3.8492,-25.68704 -15.4528,-29.04887 -11.6036,-3.36174 -23.5536,4.19765 -26.6368,16.85466 -1.4607,5.9965 -1.1707,12.39198 -0.054,18.41041 l -2.9129,-0.84394 c -0.9721,-5.99909 -1.1229,-12.32287 0.3398,-18.32775 3.4678,-14.23684 16.9075,-22.74135 29.9622,-18.95899 z m -12.1559,42.54404 c -2.4715,-7.57631 -3.1943,-14.20946 -2.0242,-19.01272 1.1557,-4.74432 5.6355,-7.58056 9.9874,-6.3198 4.3521,1.26086 6.9504,6.14789 5.7947,10.89226 -1.17,4.80294 -4.8161,10.17063 -10.4096,15.41033 l -3.3483,-0.97007 z m 19.0194,-12.91592 c 1.9265,-7.9084 -2.4063,-16.0559 -9.6579,-18.15685 -7.2514,-2.10085 -14.721,2.62724 -16.6475,10.53564 -1.2324,5.05929 -0.8492,11.52237 1.0479,18.72983 l -3.0574,-0.88582 c -1.4379,-6.06208 -2.0695,-12.65557 -0.62,-18.60581 2.3124,-9.49268 11.2728,-15.1606 19.975,-12.63935 8.7022,2.52121 13.9021,12.29151 11.5897,21.78429 -1.4495,5.95024 -4.9986,11.33248 -9.0054,15.81717 l -3.0574,-0.88581 c 4.927,-5.23037 8.2005,-10.63376 9.433,-15.69329 z m -45.3927,12.94976 c 0.1925,-0.79005 0.9335,-1.26427 1.659,-1.05338 l 49.9805,14.48039 c 0.7245,0.2099 1.1575,1.02342 0.9648,1.81357 -0.1934,0.79418 -0.9395,1.26659 -1.664,1.05654 l -49.9805,-14.48037 c -0.7242,-0.20984 -1.1534,-1.02219 -0.9598,-1.81675 z m -2.0964,8.60607 c 0.1925,-0.79017 0.9335,-1.26428 1.659,-1.05338 l 49.9805,14.48035 c 0.7245,0.20991 1.1575,1.0234 0.9649,1.81356 -0.1935,0.79419 -0.9395,1.26659 -1.664,1.05655 l -49.9806,-14.4804 c -0.7242,-0.20983 -1.1534,-1.02213 -0.9598,-1.81668 z m -2.0964,8.60601 c 0.1925,-0.79017 0.9335,-1.26428 1.659,-1.05337 l 49.9805,14.48037 c 0.7245,0.20991 1.1575,1.02341 0.9649,1.81355 -0.1935,0.79418 -0.9395,1.26659 -1.664,1.05655 l -49.9805,-14.48037 c -0.7243,-0.20983 -1.1536,-1.02224 -0.9599,-1.81673 z m -24.81,3.56356 c -0.7245,-0.20993 -1.1535,-1.02224 -0.9598,-1.81674 0.1924,-0.79016 0.9335,-1.26429 1.659,-1.05338 l 23.6735,6.85863 49.9805,14.48041 c 0.7246,0.20991 1.1575,1.02342 0.9649,1.81356 -0.1934,0.79417 -0.9395,1.26659 -1.664,1.05654 l -73.6541,-21.33902 z m 19.4014,30.18842 c 1.4628,-6.00482 4.4715,-11.41353 8.0457,-16.09574 l 2.9129,0.84388 c -3.7079,4.62106 -6.8703,10.0166 -8.331,16.01311 -3.0831,12.65656 3.8523,25.68305 15.4559,29.04485 11.6037,3.36182 23.5508,-4.19434 26.6338,-16.85059 1.4607,-5.99652 1.1726,-12.39174 0.058,-18.40991 l 2.9129,0.8439 c 0.9724,5.99952 1.1209,12.32292 -0.3418,18.32777 -3.468,14.23653 -16.9083,22.74093 -29.9625,18.95888 -13.0542,-3.78206 -20.852,-18.43991 -17.3841,-32.67615 z"
           id="path4711-9-9-4-8" />
      </g>
      <g
         inkscape:export-ydpi="176.38472"
         inkscape:export-xdpi="176.38472"
         transform="matrix(1.3708067,0,0,1.3708067,-111.49765,-2718.531)"
         id="g6639-2-6-7-8">
        <rect
           style="fill:#ffffff;fill-opacity:1;stroke:none;stroke-width:0.85000002;stroke-linecap:square;stroke-linejoin:round;stroke-miterlimit:4;stroke-dasharray:none;stroke-opacity:1"
           id="rect6634-63-7-2-0"
           width="47.75"
           height="24.75"
           x="568.5"
           y="756.36218" />
        <path
           inkscape:connector-curvature="0"
           style="fill:#000000"
           d="m 616.0779,754.8204 c -0.295,-0.792 -1.051,-1.318 -1.896,-1.318 l -43.252,0 c -0.845,0 -1.601,0.526 -1.896,1.318 -3.765,10.136 -4.983,21.352 -3.621,33.336 1.112,9.783 3.714,17.89 5.113,22.245 l 0.011,0.035 c 2.74,8.537 4.922,37.983 4.944,38.28 0.077,1.057 0.958,1.874 2.017,1.874 l 30.116,0 c 1.061,0 1.939,-0.817 2.017,-1.874 0.021,-0.297 2.204,-29.743 4.945,-38.28 l 0.011,-0.035 c 1.397,-4.356 4,-12.462 5.111,-22.245 1.362,-11.984 0.145,-23.2 -3.62,-33.336 z m -43.724,2.727 40.405,0 c 1.783,5.171 2.875,10.642 3.269,16.368 l -46.946,0.055 c 0.39,-5.746 1.482,-11.235 3.272,-16.423 z"
           id="path4-1-4-8-4" />
      </g>
      <g
         inkscape:export-ydpi="176.38472"
         inkscape:export-xdpi="176.38472"
         transform="matrix(0.25762973,0,0,0.25762973,276.76746,-1629.5099)"
         id="g7334-4-4">
        <g
           id="g7322-4-6">
          <g
             id="g7273-2-1">
            <g
               style="display:inline;fill:#999999"
               id="g7039-9-7">
              <path
                 inkscape:connector-curvature="0"
                 id="path7022-1-2"
                 d="m 1796.7887,-415.74972 c -4.0826,-3.43534 -9.8628,-12.63279 -15.2965,-24.34 -15.6824,-33.78868 -33.5525,-47.12836 -63.1013,-47.10381 -18.8563,0.0162 -26.5408,2.61489 -45.1074,15.25734 -20.6055,14.03075 -26.728,17.14312 -33.7188,17.14115 -6.9594,-0.002 -26.5538,-9.10575 -44.736,-20.78479 -31.5498,-20.26559 -38.167,-23.22127 -83.4909,-37.29211 -55.7674,-17.31306 -106.4962,-39.81621 -116.4652,-51.66359 -6.5534,-7.78841 -6.5234,-15.895 0.1329,-35.72362 34.3223,-102.24418 135.9176,-158.77055 276.3636,-153.76518 30.527,1.08796 52.2378,4.30996 70.8999,10.52191 l 9.1157,3.03431 -8.1029,-1.06588 c -30.4689,-4.00801 -39.5013,-3.53489 -39.5013,2.0691 0,6.72319 29.7331,29.18979 43.0463,32.52628 18.4081,4.61329 28.9787,-12.40968 15.8551,-25.5332 -7.9807,-7.98073 -4.74,-7.45747 13.9117,2.2462 41.0515,21.35735 68.0342,58.64308 80.6352,111.42498 5.3725,22.50383 5.5406,24.97011 5.4483,79.94015 -0.098,58.63441 -1.2175,69.91307 -9.0023,90.71606 -11.881,31.74983 -39.1783,47.29474 -56.8861,32.3947 z m 38.1566,-17.96296 c 9.6008,-10.74482 1.9999,-27.96818 -12.3428,-27.96818 -20.0116,0 -24.2554,26.69804 -5.3822,33.85891 5.2379,1.98732 12.9869,-0.58798 17.725,-5.89073 z m -208.4408,-54.85709 c 3.7873,-4.30801 4.5276,-6.90734 3.6067,-12.66287 -3.2725,-20.45165 -33.6935,-18.79083 -33.6935,1.83947 0,17.09107 18.6718,23.80805 30.0868,10.8234 z m -180.7306,-109.88432 c 17.3565,-10.58344 28.831,-41.61551 20.0327,-54.17692 -12.7871,-18.25611 -43.4289,9.30642 -43.5557,39.17859 -0.037,8.94561 0.7405,11.10538 5.293,14.68641 6.6038,5.19459 10.1239,5.25481 18.23,0.31192 z m 234.3385,-84.12826 c 16.6777,-5.94799 21.0295,-16.16317 12.8393,-30.13859 -7.1618,-12.2207 -22.6588,-26.09115 -28.2604,-25.2943 -6.4088,0.91168 -13.3885,16.20382 -14.93,32.7105 -1.4367,15.38554 1.1015,20.21994 12.3273,23.47948 8.4128,2.44274 9.1371,2.41231 18.0238,-0.75709 z m -69.0342,-33.34198 c 12.8686,-8.12726 25.8538,-20.44572 25.8538,-24.52639 0,-8.23657 -47.2723,-2.2215 -58.8048,7.4825 -4.7568,4.00257 -6.018,6.70014 -6.018,12.87172 0,16.71885 16.3338,18.46762 38.969,4.17217 z"
                 style="fill:#999999;fill-opacity:1;stroke:none;stroke-width:5.0999999;stroke-linecap:square;stroke-linejoin:round;stroke-miterlimit:4;stroke-dasharray:none;stroke-opacity:1" />
              <path
                 inkscape:connector-curvature="0"
                 id="path7022-9-1-7"
                 d="m 1802.45,-417.19628 c -4.0826,-3.43534 -9.8628,-12.63279 -15.2965,-24.34 -15.6824,-33.78868 -33.5525,-47.12836 -63.1013,-47.10381 -18.8563,0.0162 -26.5408,2.61489 -45.1074,15.25734 -20.6055,14.03075 -26.728,17.14312 -33.7188,17.14115 -6.9594,-0.002 -26.5538,-9.10575 -44.736,-20.78479 -31.5498,-20.26559 -38.167,-23.22127 -83.4909,-37.29211 -55.7674,-17.31306 -106.4962,-39.81621 -116.4652,-51.66359 -6.5534,-7.78841 -6.5234,-15.895 0.1329,-35.72362 34.3223,-102.24419 135.9176,-158.77056 276.3636,-153.76519 30.527,1.08796 52.2378,4.30996 70.8999,10.52191 l 9.1157,3.03431 -8.1029,-1.06588 c -30.4689,-4.00801 -39.5013,-3.53489 -39.5013,2.0691 0,6.72319 29.7331,29.18979 43.0463,32.52628 18.4081,4.61329 28.9787,-12.40968 15.8551,-25.5332 -7.9807,-7.98073 -4.74,-7.45747 13.9117,2.2462 41.0515,21.35735 68.0342,58.64308 80.6352,111.42499 5.3725,22.50383 5.5406,24.97011 5.4483,79.94015 -0.098,58.63441 -1.2175,69.91307 -9.0023,90.71606 -11.881,31.74983 -39.1783,47.29474 -56.8861,32.3947 z m 38.1566,-17.96296 c 9.6008,-10.74482 1.9999,-27.96818 -12.3428,-27.96818 -20.0116,0 -24.2554,26.69804 -5.3822,33.85891 5.2379,1.98732 12.9869,-0.58798 17.725,-5.89073 z m -208.4408,-54.85709 c 3.7873,-4.30801 4.5276,-6.90734 3.6067,-12.66287 -3.2725,-20.45165 -33.6935,-18.79083 -33.6935,1.83947 0,17.09107 18.6718,23.80805 30.0868,10.8234 z m -180.7306,-109.88432 c 17.3565,-10.58344 28.831,-41.61551 20.0327,-54.17692 -12.7871,-18.25612 -43.4289,9.30642 -43.5557,39.17859 -0.037,8.94561 0.7405,11.10538 5.293,14.68641 6.6038,5.19459 10.1239,5.25481 18.23,0.31192 z m 234.3385,-84.12827 c 16.6777,-5.94799 21.0295,-16.16317 12.8393,-30.13859 -7.1618,-12.2207 -22.6588,-26.09115 -28.2604,-25.2943 -6.4088,0.91168 -13.3885,16.20382 -14.93,32.7105 -1.4367,15.38554 1.1015,20.21994 12.3273,23.47948 8.4128,2.44274 9.1371,2.41231 18.0238,-0.75709 z m -69.0342,-33.34198 c 12.8686,-8.12726 25.8538,-20.44572 25.8538,-24.52639 0,-8.23657 -47.2723,-2.2215 -58.8048,7.4825 -4.7568,4.00257 -6.018,6.70014 -6.018,12.87172 0,16.71885 16.3338,18.46762 38.969,4.17217 z"
                 style="fill:#999999;fill-opacity:1;stroke:none;stroke-width:5.0999999;stroke-linecap:square;stroke-linejoin:round;stroke-miterlimit:4;stroke-dasharray:none;stroke-opacity:1" />
            </g>
            <g
               id="g7267-0-0">
              <g
                 id="g7262-2-46">
                <g
                   style="display:inline"
                   id="g7108-74-3"
                   transform="matrix(0.86468937,0,0,0.86468937,216.43584,-56.75059)">
                  <rect
                     transform="matrix(0.67751768,0.73550648,-0.71855771,0.69546733,0,0)"
                     y="-1630.8815"
                     x="915.23816"
                     height="172.78244"
                     width="33.274529"
                     id="rect7060-36-2"
                     style="fill:#000000;fill-opacity:1;stroke:none;stroke-width:5.0999999;stroke-linecap:square;stroke-linejoin:round;stroke-miterlimit:4;stroke-dasharray:none;stroke-opacity:1" />
                  <rect
                     transform="matrix(0.94796033,-0.31838845,0.31776569,0.94816927,0,0)"
                     y="89.667427"
                     x="1700.4565"
                     height="130.24857"
                     width="25.026052"
                     id="rect7060-0-36-5"
                     style="display:inline;fill:#000000;fill-opacity:1;stroke:none;stroke-width:5.0999999;stroke-linecap:square;stroke-linejoin:round;stroke-miterlimit:4;stroke-dasharray:none;stroke-opacity:1" />
                </g>
              </g>
            </g>
          </g>
          <path
             style="fill:#000000;fill-opacity:1;stroke:#000000;stroke-width:6.5999999;stroke-miterlimit:4;stroke-dasharray:none;stroke-opacity:1"
             id="path4-8-1"
             d="m 1869.9695,-591.68562 c -5.5829,-48.35761 -20.7445,-85.36639 -46.3579,-113.14546 -35.3508,-38.34096 -91.0211,-57.78968 -165.4635,-57.78968 -52.1222,0 -98.4574,7.89191 -137.7247,23.45651 -32.2788,12.78781 -60.0573,30.8369 -82.5419,53.64699 -18.2847,18.53812 -42.5491,50.02705 -54.3213,94.78722 -6.4558,24.53574 7.8614,35.36182 9.8451,36.72211 21.6742,16.05925 82.5363,40.93787 133.0317,54.35524 27.3988,7.29046 44.7709,18.49877 61.582,29.33609 12.05,7.78511 23.4368,15.12616 37.4309,20.21318 4.8971,1.77625 9.5391,2.6475 14.1755,2.6475 13.6993,0 24.2416,-7.80759 34.4439,-15.34537 9.5334,-7.04876 19.3843,-14.33922 32.3468,-16.05925 3.8939,-0.51714 7.6517,-0.78132 11.1771,-0.78132 24.9729,0 41.4835,12.84402 51.9635,40.43198 13.3479,35.12012 35.2431,36.14314 37.6917,36.14314 0.1076,0 0.1983,-0.0112 0.2663,-0.0112 21.0337,-0.0337 38.2698,-12.28754 49.855,-35.44051 8.4396,-16.86305 10.9108,-33.49565 11.0071,-34.19827 l 0.057,-0.25295 c 3.2534,-35.86209 6.3141,-77.5588 1.5644,-118.7159 z m -11.4265,117.68726 c -0.4591,2.92855 -10.1286,61.07235 -51.1189,61.07235 l -0.057,0 -0.119,0.0112 0,4.91838 0,-4.91838 c -0.6972,0 -17.2248,-0.34289 -28.4133,-29.77453 -11.9593,-31.50019 -32.0011,-46.8006 -61.2475,-46.8006 -3.9676,0 -8.1675,0.29791 -12.4921,0.86563 -15.5131,2.06292 -26.9056,10.49445 -36.9605,17.92543 -9.7205,7.17804 -18.109,13.39489 -28.5153,13.39489 -3.4518,0 -6.9772,-0.6689 -10.7634,-2.04043 -12.9455,-4.71042 -23.8733,-11.75917 -35.4415,-19.22388 -16.6466,-10.73614 -35.5095,-22.90003 -64.4215,-30.58396 -48.7101,-12.95644 -109.3285,-37.62147 -129.7387,-52.79822 l -0.2267,-0.16863 c -0.4364,-0.29791 -10.7634,-7.50968 -5.8663,-26.12649 13.0136,-49.47057 64.8807,-164.53281 264.9922,-164.53281 71.5461,0 124.7508,18.36949 158.1462,54.59695 52.5189,56.96339 49.3562,145.56749 42.2487,224.18305 z"
             inkscape:connector-curvature="0" />
        </g>
        <path
           inkscape:connector-curvature="0"
           d="m 1695.3074,-710.82022 c -13.7603,-23.44383 -24.2839,-26.491 -26.2661,-26.86088 l -2.1024,-0.39925 -1.7358,1.28581 c -1.6327,1.20947 -9.8705,8.58373 -12.5058,35.80864 -0.7734,2.51288 -0.8993,5.11383 -0.3609,7.56214 1.7244,7.83809 9.7732,13.09872 20.0332,13.09872 l 0,0 c 2.3374,0 4.7148,-0.27595 7.0693,-0.8161 13.0213,-3.00608 21.5285,-13.1046 19.3573,-23.00348 -0.5385,-2.44832 -1.7416,-4.74396 -3.4888,-6.6756 z m -18.0683,19.65101 c -1.6327,0.37576 -3.2653,0.56951 -4.8695,0.56951 l 0,0 c -5.2932,0 -9.607,-2.13713 -10.2543,-5.07862 -0.1604,-0.75738 -0.092,-1.58523 0.2234,-2.46003 l 0.2235,-0.61649 0.063,-0.65757 c 1.4552,-15.66446 4.835,-23.44384 6.9032,-26.86676 3.2997,2.18409 9.6127,7.73241 17.4667,21.24211 l 0.3323,0.56951 0.4583,0.46383 c 0.6531,0.6517 1.0713,1.368 1.2317,2.12538 0.7848,3.58733 -4.0788,8.93602 -11.7782,10.70913 z"
           id="path6-6-9-64"
           style="fill:#000000;fill-opacity:1;stroke:#000000;stroke-width:6.5999999;stroke-miterlimit:4;stroke-dasharray:none;stroke-opacity:1" />
        <path
           inkscape:connector-curvature="0"
           d="m 1759.6302,-740.56927 c -2.4162,-1.01194 -4.8995,-1.68448 -7.3891,-1.99247 -14.4906,-3.66439 -26.2042,-5.60028 -33.9053,-5.60028 -4.245,0 -6.3859,0.58453 -7.4318,1.06851 l -4.6182,2.14332 1.829,4.85232 c 0.9848,2.61473 6.1351,10.42747 32.5595,26.55579 1.988,1.57763 4.2145,2.89128 6.6244,3.90322 3.4132,1.43936 7.0283,2.19361 10.472,2.19361 l 0,0 c 7.4135,0 13.4324,-3.53239 15.7018,-9.23953 1.7737,-4.45635 1.0459,-9.67951 -1.9942,-14.33698 -2.6485,-4.05408 -6.863,-7.44191 -11.8481,-9.54751 z m 3.9392,19.71728 c -0.575,1.43935 -2.9055,2.4073 -5.7987,2.4073 l 0,0 c -2.0614,0 -4.2757,-0.4714 -6.4104,-1.37022 -1.6026,-0.67253 -3.0584,-1.5462 -4.3368,-2.58329 l -0.5995,-0.42112 c -9.5911,-5.83914 -16.0198,-10.38347 -20.3015,-13.77759 5.45,0.67254 13.1388,2.07419 23.8799,4.80833 l 0.7156,0.132 c 1.621,0.17599 3.2419,0.60968 4.8445,1.28221 3.0095,1.26336 5.5663,3.26841 7.0221,5.49343 0.4893,0.72911 1.5536,2.60216 0.9848,4.02895 z"
           id="path8-5-0"
           style="fill:#000000;fill-opacity:1;stroke:#000000;stroke-width:6.5999999;stroke-miterlimit:4;stroke-dasharray:none;stroke-opacity:1" />
        <path
           inkscape:connector-curvature="0"
           d="m 1627.7002,-746.16202 c -7.1303,0 -17.99,1.8408 -31.4116,5.32519 -2.3069,0.29884 -4.608,0.93237 -6.8469,1.8946 -4.625,2.00218 -8.5245,5.2236 -10.9844,9.07855 -2.8226,4.42869 -3.4971,9.39529 -1.8477,13.63275 2.1028,5.42082 7.6743,8.78568 14.5495,8.78568 3.1854,0 6.5351,-0.7172 9.7035,-2.08586 2.2331,-0.96224 4.2963,-2.21136 6.1383,-3.7115 24.4798,-15.33012 29.2578,-22.76508 30.176,-25.25137 l 1.6947,-4.61398 -4.2792,-2.03803 c -0.9693,-0.46021 -2.953,-1.01603 -6.8922,-1.01603 z m -26.0271,24.09189 -0.5555,0.40043 c -1.1846,0.98616 -2.5335,1.81691 -4.0129,2.45642 -1.9837,0.85466 -4.0355,1.3029 -5.9456,1.3029 -2.6866,0 -4.8404,-0.91443 -5.3732,-2.28906 -0.5271,-1.3567 0.4591,-3.13774 0.9069,-3.84298 1.3489,-2.11574 3.7181,-4.02229 6.5068,-5.2236 1.4793,-0.6395 2.9869,-1.05189 4.4889,-1.21924 l 0.6632,-0.12551 c 9.9529,-2.59985 17.0774,-3.92666 22.1219,-4.57214 -3.9506,3.23935 -9.9132,7.56644 -18.8005,13.11278 z"
           id="path10-4-6"
           style="fill:#000000;fill-opacity:1;stroke:#000000;stroke-width:6.5999999;stroke-miterlimit:4;stroke-dasharray:none;stroke-opacity:1" />
        <path
           inkscape:connector-curvature="0"
           d="m 1459.1523,-658.99023 c -12.6162,0 -25.055,15.20931 -30.363,29.51269 -4.1541,11.19647 -4.0594,21.487 0.2604,27.5382 2.5091,3.51342 6.3022,5.44724 10.693,5.44724 12.6103,0 25.0549,-15.20349 30.363,-29.51268 4.1482,-11.19066 4.0535,-21.48119 -0.2604,-27.53239 -2.5091,-3.51342 -6.3022,-5.45306 -10.693,-5.45306 z m 1.219,29.51269 c -4.8406,13.06642 -14.8886,22.82849 -20.6286,22.82849 -1.0178,0 -1.6332,-0.3136 -2.2072,-1.11501 -1.8937,-2.65393 -2.3256,-9.3149 0.9822,-18.23492 4.8466,-13.0606 14.8945,-22.82848 20.6346,-22.82848 1.0119,0 1.6272,0.31941 2.2072,1.12081 1.8936,2.64813 2.3197,9.31491 -0.9882,18.22911 z"
           id="path12-2-8"
           style="fill:#000000;fill-opacity:1;stroke:#000000;stroke-width:6.5999999;stroke-miterlimit:4;stroke-dasharray:none;stroke-opacity:1" />
        <path
           inkscape:connector-curvature="0"
           d="m 1618.0857,-518.63558 c -9.9881,0 -18.113,8.1248 -18.113,18.11298 0,9.98817 8.1249,18.12552 18.113,18.12552 9.9945,0 18.1192,-8.13735 18.1192,-18.12552 0,-9.98818 -8.1247,-18.11298 -18.1192,-18.11298 z m 0,25.25277 c -3.9338,0 -7.1335,-3.21229 -7.1335,-7.14607 0,-3.93379 3.1997,-7.13351 7.1335,-7.13351 3.94,0 7.1398,3.19972 7.1398,7.13351 0,3.93378 -3.1998,7.14607 -7.1398,7.14607 z"
           id="path14-9-8"
           style="fill:#000000;fill-opacity:1;stroke:#000000;stroke-width:6.5999999;stroke-miterlimit:4;stroke-dasharray:none;stroke-opacity:1" />
        <path
           inkscape:connector-curvature="0"
           d="m 1806.1999,-446.3139 c 0,10.26363 8.3553,18.6125 18.6189,18.6125 10.2637,0 18.619,-8.34887 18.619,-18.6125 0,-10.26362 -8.3553,-18.61249 -18.619,-18.61249 -10.2636,0 -18.6189,8.34887 -18.6189,18.61249 z m 18.6189,-7.33024 c 4.0423,0 7.3367,3.28797 7.3367,7.33024 0,4.04228 -3.2944,7.33025 -7.3367,7.33025 -4.0422,0 -7.3366,-3.28797 -7.3366,-7.33025 0,-4.04227 3.2944,-7.33024 7.3366,-7.33024 z"
           id="path16-3-2" />
      </g>
      <path
         inkscape:export-ydpi="176.38472"
         inkscape:export-xdpi="176.38472"
         inkscape:connector-curvature="0"
         id="path5366-6-0"
         d="m 519.71185,-1858.4363 c -0.2182,0.1473 -0.4286,0.2894 -0.6315,0.4264 -3.5077,2.3933 -4.5512,3.5173 -4.5512,3.5173 l 0.2734,1.9926 0.7758,-0.6743 c 0,0 1.1555,-0.381 1.4771,-0.5556 l 0.1602,-0.1082 c 0.2695,-0.182 0.7243,-0.5112 1.0645,-0.7612 0.2514,-0.1922 0.4444,-0.3316 0.4444,-0.3316 0,0 0.3528,-0.2381 0.6025,-0.1108 l 0,0 0,0 c 0.2415,0.1352 0.2532,0.143 0.2548,0.1419 0,0 2.2555,-0.7675 2.463,-0.8785 0.2112,-0.109 2.0385,-1.0493 2.2985,-1.1822 0.1305,-0.066 0.3935,-0.1311 0.6831,-0.1473 0.026,0.01 0.045,0 0.065,0 0.1221,0 0.2453,0 0.3661,0.017 0.1439,0.024 0.2788,0.067 0.3957,0.1342 0,0 2.451,-0.4444 2.8526,-0.6797 0.3041,-0.1808 0.5829,-0.1334 0.7022,-0.1 0.042,0.012 0.067,0.022 0.067,0.022 l 2.5285,0.7794 c 0,0 0.032,0 0.08,0.01 0.1553,0.014 0.4918,0.031 0.749,-0.04 0.35,-0.093 0.8833,-0.399 1.2909,-0.4298 0.2544,-0.022 1.1715,-0.065 2.2171,0.3482 0.6267,0.2472 1.2985,0.6614 1.9015,1.3417 1.6023,1.815 1.8463,2.249 1.8463,2.249 l 0.5441,3.2629 c 0,0 -1.0675,12.7508 -1.1786,14.0008 -0.107,1.2495 -1.5547,13.6698 -1.612,14.4979 -0.057,0.8322 -0.7261,11.1547 -0.687,14.0814 0.043,2.9288 1.4823,17.5788 3.2551,22.927 1.6308,5.4665 4.5056,14.9006 7.6301,20.3943 l 5.98,10.8641 c 0,0 -0.2389,0.5897 -0.208,0.8446 0.03,0.2509 1.0983,2.2901 1.0983,2.2901 l 3.0629,6.2461 c 0,0 8.0425,16.4786 9.5311,19.1844 1.4895,2.7007 7.1138,12.4575 16.5582,21.4824 0,-0.042 0.3253,-5.3859 2.1089,-5.328 0,0 0,-3.4955 0.3955,-4.1596 l 0.4351,0.2195 c 0.015,-0.01 1.6991,-1.847 2.172,-1.9039 0,0 1.1499,-3.0189 1.7251,-3.9768 0.5669,-0.9636 2.0401,-4.1581 1.2896,-6.4049 l -0.744,-1.6232 c 0,0 -0.09,-0.4685 0.054,-0.6936 0.145,-0.2235 -1.2139,-1.8441 -1.2139,-1.8441 0,0 0.1016,-0.5933 0.017,-0.7221 -0.084,-0.1247 -1.2075,-1.4695 -1.2075,-1.4695 0,0 -0.056,-0.4713 -0.1856,-0.6931 -0.1297,-0.2285 -1.4647,-1.6412 -1.4647,-1.6412 0,0 -0.035,-0.012 -0.089,-0.025 -0.1662,-0.04 -0.5238,-0.1016 -0.7584,0.053 0,0 -0.4555,0.209 -0.4093,0.6128 0.051,0.4074 0.5834,1.7205 0.6818,1.9792 0.1,0.2602 1.0451,2.7227 1.1354,3.1752 0.087,0.4547 0.6286,2.2596 0.6521,2.7594 0.029,0.4915 0.076,1.3301 -0.5258,2.2161 -0.596,0.9003 -1.8831,1.6014 -2.2325,1.6781 -0.1761,0.038 -0.5584,0.1461 -1.0337,0.1397 -0.4767,0 -1.0496,-0.1298 -1.6087,-0.5594 l -1.036,-0.9263 c 0,0 -0.052,-0.03 -0.1305,-0.051 -0.083,-0.02 -0.1957,-0.027 -0.3175,0.021 l 0,0 c 0,0 -0.5384,-1.3452 -0.7239,-1.5967 -0.1747,-0.2587 -0.558,-0.6703 -1.0204,-0.6675 0,0 -0.2414,-0.9985 -0.5102,-1.3932 -0.2704,-0.4004 -0.6075,-0.7668 -1.0436,-0.8513 0,0 -0.2823,-1.016 -0.5578,-1.5138 -0.3299,-0.5979 -0.9105,-0.717 -0.9105,-0.717 0,0 -0.3874,-1.1286 -0.5463,-1.5662 -0.1791,-0.4912 -0.9118,-0.7455 -0.9118,-0.7455 0,0 -0.2231,-1.1409 -0.5005,-1.6016 -0.278,-0.4648 -0.441,-0.653 -0.843,-0.7403 0,0 -0.2513,-1.0858 -0.4767,-1.5391 -0.2253,-0.4533 -0.5752,-0.8021 -0.913,-0.9037 0,0 -0.2108,-0.9004 -0.4357,-1.3696 0,0 -0.2676,-0.7612 -0.886,-0.9266 0,0 -0.2011,-1.1243 -0.5735,-1.6128 -0.3647,-0.487 -0.8565,-0.7176 -0.8565,-0.7176 0,0 -0.065,-0.698 -0.2082,-1.0388 -0.1422,-0.3368 -1.0336,-1.6231 -1.0336,-1.6231 0,0 -0.1741,-0.7232 -0.3279,-1.0139 -0.1563,-0.2914 -0.975,-1.8552 -0.975,-1.8552 l -3.4116,-6.8786 c 0,0 3.4586,-2.914 3.9033,-5.201 0,0 0.3144,-1.5399 0.2032,-2.4851 0,0 -0.1404,-1.7616 -0.633,-2.8663 0,0 -0.092,-0.3593 -0.275,-0.4803 -0.06,-0.038 -0.13,-0.053 -0.2086,-0.02 -0.3275,0.1427 -0.7691,0.8869 -0.8756,1.0149 -0.1044,0.131 -1.5856,2.1113 -2.699,2.9662 -1.1138,0.8576 -2.1175,1.5197 -2.1175,1.5197 l -1.3381,-1.8655 c 0,0 -0.054,-0.047 -0.1469,-0.078 -0.096,-0.029 -0.2318,-0.041 -0.4014,0.033 l 0,0 0,0 c 0,0 -1.3876,-2.3437 -2.4668,-4.938 -1.0828,-2.5964 -3.3924,-8.1583 -4.9887,-13.9689 0,0 -2.3422,-8.7082 -2.9669,-12.7845 0,0 -1.7955,-11.5912 -2.0413,-15.06 0,0 -0.6503,-10.3532 -0.6293,-14.473 0,0 0.1412,-13.4684 0.5564,-18.6281 l 0.711,-8.6959 c 0,0 -0.1651,-0.6331 -0.5021,-0.8765 0,0 0,-0.6678 1.5346,-0.7491 0,0 0.7159,-0.8826 0.1598,-1.487 0,0 0.2799,-0.6912 1.271,-0.4456 0.04,0.01 0.073,0.011 0.1144,0.023 0,0 0.8616,-0.3643 0.1994,-1.5674 0,0 0.1282,-0.4543 1.2803,-0.5148 0,0 0.3845,0.01 0.1807,-1.0772 0,0 -0.037,-0.5359 0.3406,-0.6046 l 0.1482,1.6738 c 0.015,-0.01 0.5922,-0.1756 0.6348,-0.4578 0,0 -0.2358,-0.6683 -0.043,-0.9977 0,0 0.2616,-0.5556 0.8253,-0.5841 0.3386,-0.02 0.7864,0.1484 1.3553,0.7352 0,0 0.3864,-0.1781 0.069,-0.7014 0,0 -0.235,-0.763 -0.01,-0.9958 0,0 0.3483,-0.4504 1.048,-0.3938 0.1501,0.013 0.3137,0.039 0.4981,0.1099 0,0 0.4249,0.3902 0.5205,0.9468 0.014,-0.012 0.2528,-0.2266 0.2564,-0.5766 0,0 0,-0.8238 0.4032,-0.9406 0,0 0.4687,-0.2785 0.9648,-0.1382 0.1678,0.046 0.3344,0.1398 0.491,0.3053 0,0 0.3862,0.6946 0.2757,1.3411 l 0.084,0.038 c 0,0 0.6108,-0.9283 1.0576,-0.9474 0.1123,-0.01 0.2452,0 0.3845,0.032 0.4154,0.081 0.8804,0.3204 0.9566,0.8384 0,0 0.096,0.368 -0.2138,0.7992 0,0 -0.032,0.2012 0.076,0.2315 0.037,0.01 0.09,-10e-5 0.1652,-0.044 0,0 0.4561,-0.5166 0.741,-0.5498 0.1432,-0.014 0.3359,-0.02 0.5185,0 0.1856,0.023 0.3617,0.074 0.4669,0.1736 0.212,0.1977 0.5339,0.5878 0.3755,1.4124 0,0 0.01,0.1298 0.099,0.1462 0.033,0 0.075,-0.01 0.1307,-0.039 0,0 0.4166,-0.492 0.8246,-0.5253 0,0 0.1513,-0.035 0.3483,-0.015 0.195,0.016 0.4371,0.086 0.6188,0.2952 0,0 0.413,0.3129 0.2864,1.1182 l 3.0398,0.9251 1.6407,0.5738 c 0,0 0.016,-0.011 0.047,0 0.081,0.017 0.2336,0.1137 0.059,0.6488 l 3.1135,0.6756 c 0,0 0.034,0.01 0.053,0.01 0.1207,0.019 0.6331,0.1172 0.7553,0.3912 0.1395,0.3094 0.049,0.7 0.049,0.7 l 2.3664,0.2968 0,0 0,0 c 0,0 0.7478,0.2508 0.5763,0.7837 0.015,-0.01 0.829,0.039 2.209,0.1632 0,0 0.026,0 0.048,0.01 0.026,0.01 0.054,0.01 0.09,0.02 l 0.029,0.01 c 0.2886,0.072 0.8645,0.2774 0.7422,0.7704 0.01,0.015 0.6972,0.222 2.4518,0.1672 0,0 0.6057,0.183 0.6411,0.7601 0.026,0.01 1.1864,0.1695 2.2359,0.1133 0,0 0.053,0 0.135,0.01 0.2357,0.027 0.7071,0.1436 0.7049,0.6451 0.024,0 0.6243,0.061 1.4168,0.06 l 0.9573,-0.6464 -3.0359,-4.4957 c -1.9409,-0.8454 -6.9438,-3.2088 -8.3118,-3.9955 -1.4925,-0.8488 -8.1498,-4.8896 -10.3136,-6.6394 l -2.1637,-1.7499 c 0,0 -3.358,-2.688 -3.8287,-3.1459 -0.2276,-0.2275 -0.7647,-0.5579 -1.3473,-0.8529 -0.098,-0.048 -0.1948,-0.086 -0.293,-0.1317 -0.5013,-0.2377 -1.0107,-0.4407 -1.3672,-0.5072 0,0 -0.9827,-0.5026 -1.5992,-0.4989 -0.04,0 -0.1134,0.01 -0.2195,0.014 -1.6073,0.1301 -10.4271,1.1217 -14.5001,2.0267 -4.3392,0.9592 -10.8973,2.9459 -10.8973,2.9459 l -0.5375,0.6455 c 0,0 -3.1189,0.063 -9.6606,3.8641 -0.8168,0.5163 -1.5487,0.9941 -2.2046,1.4339 z m 23.5321,-4.534 c 0.1815,-0.1269 0.3763,-0.2219 0.5836,-0.2714 l 2.0576,-0.4499 c 0,0 0.291,0.01 0.6704,0.11 0.3784,0.099 0.8451,0.2881 1.1961,0.6452 0.2282,0.2317 0.376,0.4638 0.4964,0.6919 0.2476,0.4696 0.3042,0.9023 0.264,1.1515 -0.057,0.3637 -0.7572,3.5607 -0.7572,3.5607 0,0 -0.2141,1.2635 -1.434,1.7913 -1.2239,0.5351 -1.8765,-0.01 -1.8765,-0.01 0,0 -1.2553,-0.8027 -1.9179,-1.8038 -0.6565,-1.0053 -0.8053,-1.3421 -0.8053,-1.3421 0,0 -0.2246,-0.8505 -0.1317,-1.3505 0.082,-0.4245 0.6747,-2.0413 1.6545,-2.7267 z"
         style="fill:#3771c8;fill-opacity:1;stroke:#000000;stroke-width:4.09200001;stroke-miterlimit:4;stroke-dasharray:none;stroke-opacity:1" />
      <g
         inkscape:export-ydpi="176.38472"
         inkscape:export-xdpi="176.38472"
         id="g5116-8-9-4"
         transform="matrix(0.31070027,0,0,0.31070027,531.88775,-1592.4347)">
        <g
           style="display:inline;fill:#782121"
           id="g5341-2-0-3"
           transform="matrix(0.31344365,0,0,0.31344365,1332.9108,-2977.0757)"
           clip-path="url(#clipPath4880-3-0-6)">
          <rect
             y="5956.1895"
             x="-2904.0251"
             height="565.68542"
             width="770.85052"
             id="rect5343-1-5-5"
             style="fill:#782121;fill-opacity:1;stroke:none;stroke-width:5.09700012;stroke-linecap:square;stroke-linejoin:bevel;stroke-miterlimit:4;stroke-dasharray:none;stroke-opacity:1" />
          <path
             inkscape:connector-curvature="0"
             style="fill:#782121"
             d="m -2623.5912,6239.0188 -105.0797,-106.122 0,-159.1827 -70.0554,0 0,88.4354 -105.0786,-106.1209 -280.2153,282.9897 0,17.6876 70.0533,0 0,176.8677 175.1335,0 0,-106.1204 70.0554,0 0,106.1204 175.1346,0 0,-176.8677 70.0522,0 0,-17.6876 z"
             id="path5345-2-6-4" />
          <rect
             y="6244.668"
             x="-3118.217"
             height="314.86292"
             width="1198.392"
             id="rect5347-7-8-1"
             style="fill:#782121;fill-opacity:1;stroke:none;stroke-width:5.09700012;stroke-linecap:square;stroke-linejoin:bevel;stroke-miterlimit:4;stroke-dasharray:none;stroke-opacity:1" />
          <path
             id="path5349-7-1-2"
             d="m -1852.9343,6239.0114 -105.0797,-106.122 0,-159.1827 -70.0554,0 0,88.4354 -105.0786,-106.1209 -280.2153,282.9897 0,17.6876 70.0533,0 0,176.8677 175.1335,0 0,-106.1204 70.0554,0 0,106.1204 175.1346,0 0,-176.8677 70.0522,0 0,-17.6876 z"
             style="fill:#782121"
             inkscape:connector-curvature="0" />
        </g>
        <path
           style="fill:#ffffff;fill-opacity:1;stroke:#000000;stroke-width:9.89799976;stroke-linecap:square;stroke-linejoin:bevel;stroke-miterlimit:4;stroke-dasharray:none;stroke-opacity:1"
           d="m 670.9082,-1108.3867 -0.0527,0.053 -241.45508,0 -0.0508,-0.051 -0.0508,0.051 -0.0176,0 0,0.018 -87.76172,88.6328 0,5.5449 20.625,0 0,94.918 375.62891,0 0,-94.9199 20.96679,0 0,-5.5449 -32.9375,-33.2637 0,-49.8946 -21.95898,0 0,27.7208 -32.93555,-33.2637 z"
           id="rect5343-6-9-1-2"
           inkscape:connector-curvature="0" />
        <path
           inkscape:connector-curvature="0"
           style="fill:#000000;fill-opacity:1;stroke:#000000;stroke-width:9.89799976;stroke-linecap:square;stroke-linejoin:bevel;stroke-miterlimit:4;stroke-dasharray:none;stroke-opacity:1"
           d="m 639.79471,-1330.4451 -0.0527,0.053 -241.45508,0 -0.0508,-0.051 -0.0508,0.051 -0.0176,0 0,0.018 -87.76172,88.6328 0,5.5449 20.625,0 0,94.918 375.62891,0 0,-94.9199 20.96679,0 0,-5.5449 -32.9375,-33.2637 0,-49.8946 -21.95898,0 0,27.7208 -32.93555,-33.2637 z"
           id="rect5343-6-1-1-8-2"
           clip-path="url(#clipPath8197-8-5-8)"
           transform="translate(31.112698,226.27417)" />
        <rect
           style="fill:#000000;fill-opacity:1;stroke:none;stroke-width:5.0999999;stroke-linecap:square;stroke-linejoin:round;stroke-miterlimit:4;stroke-dasharray:none;stroke-opacity:1"
           id="rect5049-79-9-4"
           width="24.041628"
           height="29.698483"
           x="442.64883"
           y="-1003.9042" />
        <rect
           style="fill:#000000;fill-opacity:1;stroke:none;stroke-width:5.0999999;stroke-linecap:square;stroke-linejoin:round;stroke-miterlimit:4;stroke-dasharray:none;stroke-opacity:1"
           id="rect5049-5-1-5-5"
           width="24.041628"
           height="29.698483"
           x="443.35593"
           y="-962.185" />
        <rect
           style="fill:#000000;fill-opacity:1;stroke:none;stroke-width:5.0999999;stroke-linecap:square;stroke-linejoin:round;stroke-miterlimit:4;stroke-dasharray:none;stroke-opacity:1"
           id="rect5049-7-3-5-4"
           width="24.041628"
           height="29.698483"
           x="520.78412"
           y="-1004.2577" />
        <rect
           style="fill:#000000;fill-opacity:1;stroke:none;stroke-width:5.0999999;stroke-linecap:square;stroke-linejoin:round;stroke-miterlimit:4;stroke-dasharray:none;stroke-opacity:1"
           id="rect5049-5-7-1-2-4"
           width="24.041628"
           height="29.698483"
           x="521.49121"
           y="-962.53857" />
        <rect
           style="fill:#000000;fill-opacity:1;stroke:none;stroke-width:5.0999999;stroke-linecap:square;stroke-linejoin:round;stroke-miterlimit:4;stroke-dasharray:none;stroke-opacity:1"
           id="rect5049-4-2-6-7"
           width="35.355335"
           height="53.740112"
           x="618.71844"
           y="-974.91284" />
      </g>
    </g>
    <g
       transform="matrix(0.67853824,0,0,0.67853824,-284.07353,1491.985)"
       id="g5302"
       inkscape:export-filename="C:\Users\user\Pictures\qubmc website\crest_banner.png"
       inkscape:export-xdpi="779.84442"
       inkscape:export-ydpi="779.84442" />
  </g>
</svg>
